<svg xmlns="http://www.w3.org/2000/svg" width="60.05" height="57.373" viewBox="0 0 60.05 57.373"><defs><style>.a{fill:#fff;opacity:0.4;}.a,.b{fill-rule:evenodd;}.b{fill:#efd99c;}</style></defs><g transform="translate(0 -0.001)"><path class="a" d="M3066.8,901.577l5.25,3.51-5.24,3.5a24.9,24.9,0,0,1-6.39,13.556l8.27,10.107-10.12-8.3a24.963,24.963,0,0,1-33.99-.9l1.17,1.169-10.26,8.155,8.14-10.282.57.575a24.961,24.961,0,0,1-6.86-14.014l-5.34-3.565,5.35-3.573a24.877,24.877,0,0,1,21.11-21.153l3.57-5.361,3.56,5.354a24.9,24.9,0,0,1,13.4,6.348l10.15-8.326-8.33,10.186A24.89,24.89,0,0,1,3066.8,901.577Zm-8.44-12.75a22.993,22.993,0,1,0,6.787,16.311A23.045,23.045,0,0,0,3058.36,888.827Zm-42.86-11.04,10.27,8.156-2.13,2.127Z" transform="translate(-3012 -875)"/><path class="b" d="M3054.16,898.853a6.452,6.452,0,0,0-3.54-4.007l-.37.661a2.282,2.282,0,0,1-3.1.877l1.48-2.646-1.32-.738c-.64,1.13-3.81,6.811-4.44,7.938h0l-.5.9.87,1.555.96-1.719a2.277,2.277,0,0,1,.87,3.092l-.37.661a6.868,6.868,0,0,0,3.61,1.137,6.062,6.062,0,0,0,5.85-7.714h0ZM3045.3,910.2l-9.61-17.2-1.32.738,1.48,2.646a2.279,2.279,0,0,1-3.1-.877l-.37-.661-.66.369a6.059,6.059,0,0,0,2.97,11.351,6.8,6.8,0,0,0,3.6-1.136l-.37-.661a2.28,2.28,0,0,1,.88-3.092l5.17,9.261-1.32.738,2.96,5.293,3.97-2.215-2.96-5.292Zm-5.54-3.7-2.06,3.7-1.33-.738-2.95,5.292,3.97,2.215,2.96-5.293-1.33-.738,1.61-2.878Z" transform="translate(-3012 -875)"/></g></svg>