<svg xmlns="http://www.w3.org/2000/svg" width="60.05" height="57.373" viewBox="0 0 60.05 57.373"><defs><style>.a{fill:#fff;opacity:0.4;}.a,.b{fill-rule:evenodd;}.b{fill:#efd99c;}</style></defs><g transform="translate(0 -0.001)"><path class="a" d="M2894.8,901.577l5.25,3.51-5.24,3.5a24.9,24.9,0,0,1-6.39,13.556l8.27,10.107-10.12-8.3a24.963,24.963,0,0,1-33.99-.9l1.17,1.169-10.26,8.155,8.14-10.282.57.575a24.961,24.961,0,0,1-6.86-14.014l-5.34-3.565,5.35-3.573a24.876,24.876,0,0,1,21.11-21.153l3.57-5.361,3.56,5.354a24.9,24.9,0,0,1,13.4,6.348l10.15-8.326-8.33,10.186A24.89,24.89,0,0,1,2894.8,901.577Zm-8.44-12.75a22.993,22.993,0,1,0,6.787,16.311,23.045,23.045,0,0,0-6.787-16.311Zm-42.86-11.04,10.27,8.156-2.13,2.127Z" transform="translate(-2840 -875)"/><path class="b" d="M2875.38,895.053h-2.88l.62-4.053h-5.22l.62,4.053h-2.87v2.432h9.73v-2.432Zm-12.56,13.086a7.049,7.049,0,0,0,7.27,0,8.614,8.614,0,0,1,8.96.01l.29.178a8.954,8.954,0,0,0-5.58-6.991v-2.229h-6.49v2.229a8.9,8.9,0,0,0-5.45,6.306c.05.029-.28-.138,1,.5h0Zm8.11,1.391a8.972,8.972,0,0,1-9.33-.188,8.918,8.918,0,1,0,17.811.948c-.261-.085-4.051-3.416-8.481-.76Zm-2.04,4.979h-1.62v-1.621h1.62Zm4.05.811h-1.62V913.7h1.62v1.622Zm2.44-3.243h-1.62v-1.621h1.62Z" transform="translate(-2840 -875)"/></g></svg>