<svg xmlns="http://www.w3.org/2000/svg" width="80.006" height="109.028" viewBox="0 0 80.006 109.028"><defs><style>.a{fill:#56585d;fill-rule:evenodd;}</style></defs><path class="a" d="M16.33,41.02a.9.9,0,0,0,.15.6.952.952,0,0,0,.5.38,1.548,1.548,0,0,0,1.32-.24.676.676,0,0,0,.37-.39.721.721,0,0,0,0-.54c.24-.43-.23-.65-.33-1a1.123,1.123,0,0,0-.58-.47.363.363,0,0,0-.42-.05c-.34.23-.98.18-.88.86a1.2,1.2,0,0,0-.13.85m46.63-1.54a.872.872,0,0,0-.87-.04,1.741,1.741,0,0,0-.83,1.45.681.681,0,0,0,.04.54.691.691,0,0,0,.39.36,3.129,3.129,0,0,0,.71.24,1.045,1.045,0,0,0,.86-.23.912.912,0,0,0,.27-.37,1.13,1.13,0,0,0,.09-.45,2.454,2.454,0,0,0-.15-.93c-.1-.3-.11-.56-.51-.57M39.16,27.12c.94-.05,1,.01,1,.97-.04.22.12.56-.12.64a.542.542,0,0,1-.37-.11.53.53,0,0,1-.21-.33,2.578,2.578,0,0,0-.54-.69.3.3,0,0,1-.05-.15.415.415,0,0,1,.03-.16.254.254,0,0,1,.11-.12.3.3,0,0,1,.15-.05m.19,2.92a.64.64,0,0,0,.63.37.659.659,0,0,0,.62-.38,15.256,15.256,0,0,0,1.67-2.94.732.732,0,0,0,.08-.36.716.716,0,0,0-.38-.6.74.74,0,0,0-.36-.09c-.27-.01-.54,0-.92,0,0-.6.01-1.14,0-1.68a.322.322,0,0,1,.06-.23.284.284,0,0,1,.2-.12c.38-.18.38-.49.1-.79a1.166,1.166,0,0,1-.57-1.05.358.358,0,0,0-.16-.25.435.435,0,0,0-.29-.07c-.29,0-.58.04-.6.37a.635.635,0,0,1-.43.56c-.58.4-.81.69.03,1.24.08.06.2.11.29.18a.215.215,0,0,1,.1.31,4.382,4.382,0,0,0-.31,1.07.631.631,0,0,1-.24.34.576.576,0,0,1-.4.12.489.489,0,0,0-.33.09.46.46,0,0,0-.19.28,1.354,1.354,0,0,0,.01,1.4c.48.73.91,1.5,1.39,2.23M36.87,93.3a.676.676,0,0,0-.37.04.894.894,0,0,0-.31.19.705.705,0,0,0-.19.31.769.769,0,0,0-.03.37,1.078,1.078,0,0,0,1,1.1,1.016,1.016,0,0,0,.69-.32,1.051,1.051,0,0,0,.31-.69,1.36,1.36,0,0,0-.44-.81.706.706,0,0,0-.66-.19m6.92.74a.666.666,0,0,0-.46-.87,1.5,1.5,0,0,0-1.21.07.722.722,0,0,0-.34.37.745.745,0,0,0-.03.51,1.116,1.116,0,0,0,.47.8.8.8,0,0,0,.29.23.955.955,0,0,0,.36.09.864.864,0,0,0,.67-.31.943.943,0,0,0,.25-.89M35.07,37.12a.744.744,0,0,0,.39-.03.721.721,0,0,0,.33-.21.878.878,0,0,0,.19-.34.856.856,0,0,0,0-.39.548.548,0,0,0-.13-.52,4.455,4.455,0,0,0-.97-.5,1.143,1.143,0,0,0-.57.31,1.064,1.064,0,0,0-.31.58,4.944,4.944,0,0,0,.5.97.484.484,0,0,0,.57.13m9.8,0a.565.565,0,0,0,.58-.12,4.422,4.422,0,0,0,.51-.96,1.174,1.174,0,0,0-.31-.58,1.16,1.16,0,0,0-.57-.32,3.846,3.846,0,0,0-.97.49.491.491,0,0,0-.13.57.7.7,0,0,0,.01.38.734.734,0,0,0,.19.33.825.825,0,0,0,.32.2.773.773,0,0,0,.37.01m11.37,13.1a.811.811,0,0,0,.38-.01.748.748,0,0,0,.34-.18.839.839,0,0,0,.22-.31.823.823,0,0,0,.06-.38.864.864,0,0,0-.03-.39.81.81,0,0,0-.53-.53.735.735,0,0,0-.39-.02.864.864,0,0,0-.39.03.918.918,0,0,0-.35.19.963.963,0,0,0-.24.32.853.853,0,0,0-.08.39.935.935,0,0,0,.31.65,1.083,1.083,0,0,0,.7.24m-31.55-.96a.879.879,0,0,0-.1-.36.923.923,0,0,0-.23-.29.961.961,0,0,0-.33-.18,1.544,1.544,0,0,0-.74.01,1.043,1.043,0,0,0-.32.19,1.287,1.287,0,0,0-.22.3.938.938,0,0,0-.08.36.857.857,0,0,0,.07.36.813.813,0,0,0,.21.3.8.8,0,0,0,.32.19.923.923,0,0,0,.37.05.908.908,0,0,0,.4-.03.94.94,0,0,0,.35-.2.856.856,0,0,0,.23-.33.649.649,0,0,0,.07-.37M55.06,63.85c.88.01,1.08-.21,1.12-.94a.758.758,0,0,0-.09-.51.692.692,0,0,0-.4-.33,1.337,1.337,0,0,0-1.2.1,1.114,1.114,0,0,0-.32,1.2.765.765,0,0,0,.35.4.78.78,0,0,0,.54.08M25.37,62.09a5.122,5.122,0,0,0-.78-.06.676.676,0,0,0-.48.09.647.647,0,0,0-.29.38,1.118,1.118,0,0,0,.08,1.02.739.739,0,0,0,.34.29.761.761,0,0,0,.45.04h.25a.857.857,0,0,0,.84-.5,1.161,1.161,0,0,0-.02-.69,1.089,1.089,0,0,0-.39-.57M27.72,42.2a1.238,1.238,0,0,0,.42-.82.788.788,0,0,0-.26-.59,2.433,2.433,0,0,0-1.01-.38,1.006,1.006,0,0,0-.65.37,1.072,1.072,0,0,0,0,1.4,1.1,1.1,0,0,0,.65.37,1.326,1.326,0,0,0,.85-.35m25.37.34a1.05,1.05,0,0,0,.65-.37,1.006,1.006,0,0,0,.25-.7,1.065,1.065,0,0,0-.26-.7,1.037,1.037,0,0,0-.65-.36,2.025,2.025,0,0,0-1,.39.689.689,0,0,0-.28.59,1.681,1.681,0,0,0,.43.81,1.2,1.2,0,0,0,.86.34M31.89,83.49a1.226,1.226,0,0,0,.41-.13,1.087,1.087,0,0,0,.33-.27,1.067,1.067,0,0,0,.2-.38,1.239,1.239,0,0,0,.05-.43.837.837,0,0,0-.59-.98.854.854,0,0,0-.42-.01c-.75,0-.97.27-1,1.09a1.085,1.085,0,0,0,.29.75,1.049,1.049,0,0,0,.73.36m16.37,0a.921.921,0,0,0,.56-.4.977.977,0,0,0,.29-.58.958.958,0,0,0-.13-.64c-.18-.54-.27-.57-.92-.57a.71.71,0,0,0-.59.07.735.735,0,0,0-.22.21.61.61,0,0,0-.11.28.9.9,0,0,0-.08.28,1.431,1.431,0,0,0-.01.29,1.022,1.022,0,0,0,.07.29.939.939,0,0,0,.14.26,1.373,1.373,0,0,0,.2.22,1.254,1.254,0,0,0,.24.16,1.331,1.331,0,0,0,.28.1.638.638,0,0,0,.28.03M27.95,73.72a.551.551,0,0,0-.5,0,1.116,1.116,0,0,0-.61.52,1.152,1.152,0,0,0-.14.79c0,.72.23,1,.81,1a1.152,1.152,0,0,0,.76-.24,1.125,1.125,0,0,0,.43-.67,1.46,1.46,0,0,0-.16-.82,1.376,1.376,0,0,0-.59-.58m24.22,2.3a.8.8,0,0,0,.53,0,.843.843,0,0,0,.43-.31,1.184,1.184,0,0,0,.12-.67,1.421,1.421,0,0,0-.01-.46,1.077,1.077,0,0,0-.17-.45.9.9,0,0,0-.36-.31,1.082,1.082,0,0,0-.47-.11.94.94,0,0,0-.46.13,1.412,1.412,0,0,0-.44.61,1.468,1.468,0,0,0-.08.75,1.186,1.186,0,0,0,.91.82M35.99,44.71a.9.9,0,0,1,.66-.13h.61c.24,0,.18.18.18.31s-.01.24-.18.23a1.186,1.186,0,0,1-.53-.01,2.2,2.2,0,0,1-.74-.31.075.075,0,0,1,0-.09m2.09,3.51c.15-.09.28.04.27.22a.61.61,0,0,1-.18.46,1.539,1.539,0,0,1-.95.76.2.2,0,0,1-.31-.08.286.286,0,0,1,.04-.24,2.364,2.364,0,0,1,1.13-1.12m.54-4.92a2.38,2.38,0,0,0,.25-.44,1.134,1.134,0,0,1,.52-.56,1.088,1.088,0,0,1,.75-.1.886.886,0,0,1,.85.37,2.01,2.01,0,0,0,.39.38.56.56,0,0,1,.25.63,2.164,2.164,0,0,0,0,.36,1.139,1.139,0,0,1-.5,1.37,2.089,2.089,0,0,0-.12-.86,2.648,2.648,0,0,0-.26-.73.8.8,0,0,0-.38-.41,1.478,1.478,0,0,0-1.01.18.332.332,0,0,0-.09.33.717.717,0,0,1-.16.66c-.11.1.09.4-.15.45a.4.4,0,0,1-.28-.1.4.4,0,0,1-.14-.26.951.951,0,0,1-.2-.65.9.9,0,0,1,.28-.62m3.2,4.92a4.271,4.271,0,0,1,1.43,1.24.606.606,0,0,1,0,.19.151.151,0,0,1-.12.2.206.206,0,0,1-.17-.02c-.33-.43-.86-.61-1.22-1.01a.55.55,0,0,1-.13-.49.136.136,0,0,1,.07-.11.17.17,0,0,1,.14,0m1.65-3.62a3.966,3.966,0,0,0,.9.23,5.587,5.587,0,0,1-1.32.46.2.2,0,0,1-.32-.06.557.557,0,0,1-.02-.36.539.539,0,0,1,.32-.29.522.522,0,0,1,.44.02m-9.35,1.76a2.435,2.435,0,0,0-.68,2.07c.04.23.23.12.36.15h1.09c-.06-.3.06-.42.36-.37a1.751,1.751,0,0,1,1.09-.54c.15-.39.44-.1.69-.13a.7.7,0,0,1-.69.49.44.44,0,0,0-.37.43,4.21,4.21,0,0,1-.24.99,2.473,2.473,0,0,0,.08,1.87.91.91,0,0,0,.26.43,1.038,1.038,0,0,0,.43.25.943.943,0,0,0,.5,0,.953.953,0,0,0,.44-.24,1.406,1.406,0,0,0,.34-.59,1.9,1.9,0,0,1,1.31-1.01,4.352,4.352,0,0,0,.16,1.72.8.8,0,0,0,.22.46.77.77,0,0,0,.44.24c.55.05.61.03.85-.52a2.563,2.563,0,0,0,.31-1.24,1.362,1.362,0,0,1,.08-.82,1.435,1.435,0,0,1,.74.41,8.3,8.3,0,0,1,.64.54q.255.375.54.72h.54a.407.407,0,0,0,.22-.02.474.474,0,0,0,.19-.12.615.615,0,0,0,.12-.19.55.55,0,0,0,.02-.22c.03-.14-.09-.35.18-.36,0-.3-.02-.6,0-.89a2.386,2.386,0,0,0-.55-1.66.387.387,0,0,1-.36-.36.427.427,0,0,1-.33-.05c-.11-.12-.3-.21-.2-.42a.249.249,0,0,1,.31-.07c.29-.02.19.21.21.36h.36a.15.15,0,0,1,.18.18,2.132,2.132,0,0,1,1.09.64c.45.38.5.37.95-.03a.889.889,0,0,0,.33-.78,1.364,1.364,0,0,0-.33-.95,4.4,4.4,0,0,1-.39-.66c-.05-.1-.13-.38.17-.4a.745.745,0,0,0,.41-.33,1.1,1.1,0,0,0,0-1.16,1.571,1.571,0,0,0-1.24-.52,1.669,1.669,0,0,1-.63,0,4.756,4.756,0,0,1-.89-.26c-.13-.05-.3-.24-.19-.35a2.874,2.874,0,0,1,.83-1,.572.572,0,0,0,.38-.28.535.535,0,0,0,.05-.46,1.022,1.022,0,0,0-.05-.52,1.684,1.684,0,0,0-1.04.06,1.725,1.725,0,0,0-.82.64.8.8,0,0,1-.13.13c-.37.34-.53.32-.88-.05a1.942,1.942,0,0,0-.51-.69,1.559,1.559,0,0,1-.56-.58.733.733,0,0,0-.3-.22.67.67,0,0,0-.37-.05.821.821,0,0,0-.35.13.678.678,0,0,0-.25.28,15.472,15.472,0,0,1-1.12,1.17.365.365,0,0,1-.48,0,7.73,7.73,0,0,1-.64-.64,1.407,1.407,0,0,0-1.2-.39.342.342,0,0,0-.33.26.892.892,0,0,0,.2.99,3.894,3.894,0,0,1,.91,1.07c.15.26.07.61-.2.58a9.972,9.972,0,0,0-1.2.19,1.553,1.553,0,0,0-1.06.3c-.24.16-.55.2-.51.6.03.32-.05.66.42.76a1.191,1.191,0,0,1,.4.34.212.212,0,0,1,0,.36,3.341,3.341,0,0,0-.32.33M3.24,4.32v.07c.28.22.82.62,1.79,1.34-.56-.43-1.15-.9-1.79-1.41m67.17,51.6-.03.03c-.04.08,0,.12.08.08.01-.01.01-.01.01-.02a.375.375,0,0,1,.01-.1c-.02,0-.05.01-.07.01m3.9-47.9a8.257,8.257,0,0,0-.95,1.33A3.782,3.782,0,0,1,71,10.92a19.746,19.746,0,0,0-2.59.99.439.439,0,0,1-.56.04,1.6,1.6,0,0,1-.39-.65c-.05-.1.06-.17.12-.22.9-.67,1.61-1.55,2.56-2.15a1.146,1.146,0,0,0,.23-.1c.22-.29.6-.39.82-.65a7.153,7.153,0,0,1,1.73-1.32,6.518,6.518,0,0,0,.94-.8,21.525,21.525,0,0,1,1.98-1.59.958.958,0,0,1,.7-.28c.15.02.22.03.18.19a.688.688,0,0,1,.11-.13,1.087,1.087,0,0,1-.23.54,1.39,1.39,0,0,0-.41.46,10.671,10.671,0,0,1-1.88,2.77m.44,3.63a7.415,7.415,0,0,0,.97-.5.211.211,0,0,1,.24.01c.1.09.06.19-.01.3a17.4,17.4,0,0,1-2.76,3.3c-.2.18-.37.4-.58.57a1,1,0,0,1-.58.31c-.75-.1-1.44.38-2,.22a3.114,3.114,0,0,1-1.48-.19.556.556,0,0,1-.27-.21.482.482,0,0,1-.08-.33.415.415,0,0,1,.41-.39,3.61,3.61,0,0,0,1.34-.71,4.043,4.043,0,0,1,1.97-.9,2.018,2.018,0,0,0,.8-.49,10.318,10.318,0,0,1,2.03-.99m-2.78,7.24a6.03,6.03,0,0,1-2.59.99c-.54.05-1.09.13-1.65.15-.12,0-.26.02-.27-.15a.294.294,0,0,1,.09-.22,2.576,2.576,0,0,1,.95-.54,1.183,1.183,0,0,0,.49-.36c1.03-.43,2.06-.85,3.09-1.27.7.11,1.36-.36,2.08-.15a13.979,13.979,0,0,1-2.19,1.55m-2.66,3.49c-1.79.01-3.58.01-5.36.01a1.178,1.178,0,0,1-.19-.11,10.708,10.708,0,0,1,2.03-.8,3.251,3.251,0,0,1,1.38-.18.832.832,0,0,0,.39-.16,5.014,5.014,0,0,1,1.64.18,1.123,1.123,0,0,1,.39.36.49.49,0,0,1,.25.54c-.09.34-.36.16-.53.16m-.44,2.66a.53.53,0,0,1-.67.06c-.66-.37-1.49-.3-2.09-.85a1.834,1.834,0,0,0-.82-.39.723.723,0,0,1-.35-.38c.75,0,1.49-.01,2.23,0a1.046,1.046,0,0,1,.75.37c.21.22.44.41.63.64.14.17.51.28.32.55m-3.12,2.81a4.341,4.341,0,0,1-1.93-1.79,1.705,1.705,0,0,1-.17-1.25.8.8,0,0,1,.53-.03.774.774,0,0,1,.43.3,24.169,24.169,0,0,1,1.98,2.18,1.445,1.445,0,0,1,.33.68,1.341,1.341,0,0,1-1.17-.09m-3.39-6.2a.418.418,0,0,1-.31-.02.41.41,0,0,1-.22-.21,4.636,4.636,0,0,0-1.52-1.15,4.27,4.27,0,0,0-1.64-.45,8.292,8.292,0,0,0-2.11-.12,1.081,1.081,0,0,0,.14.82c.41.76.69,1.6,1.15,2.33.26.42-.17.63-.09.95a.4.4,0,0,1-.24.02c-.49-.6-1.32-.95-1.36-1.88a2.946,2.946,0,0,0-.88-1.07,2.392,2.392,0,0,0-1.27-.7,1.715,1.715,0,0,0-1.14.01.863.863,0,0,0-.4.33,1.042,1.042,0,0,0-.09.94,2.1,2.1,0,0,0,.54.86.5.5,0,0,0,.2.08.5.5,0,0,0,.21-.02.36.36,0,0,0,.18-.12.435.435,0,0,0,.1-.19,2.257,2.257,0,0,0,.01-.45c0-.12-.03-.28.11-.3a.4.4,0,0,1,.42.06,6.079,6.079,0,0,1,.5.52.378.378,0,0,1,.05.34,2.888,2.888,0,0,1-.6.83,1.355,1.355,0,0,1-.8.25,2.124,2.124,0,0,1-1.11-.21,2.2,2.2,0,0,1-.86-.74,1.841,1.841,0,0,1-.17-1.76c.05-.17.06-.34.1-.5a1.011,1.011,0,0,1,.3-.65,1.036,1.036,0,0,1,.64-.32,1.262,1.262,0,0,0,.78-.34c.53-.43,1.25-.51,1.8-.91.8.02,1.58-.53,2.39-.06a.39.39,0,0,0,.26.02,9.222,9.222,0,0,1,1.47.18,3.814,3.814,0,0,1,1.46.22,6.73,6.73,0,0,1,3.02,1.26,4.4,4.4,0,0,0,.75.38c.26.15.23.29.11.57-.36.82-1.26.78-1.88,1.2m.57,8.13a5.67,5.67,0,0,1,.7,1.52.38.38,0,0,1-.25.51c-.35.1-.63.34-1.01.42a9.6,9.6,0,0,0-1.46.57c0-.57-.01-1.08,0-1.58a.525.525,0,0,0-.42-.66.562.562,0,0,1-.26-.22.331.331,0,0,1-.02-.41c.14-.19.19.1.34.11a1.271,1.271,0,0,1,.6.5.671.671,0,0,0,.46.22c.82.04.88,0,.94-.85.01-.12-.01-.24.17-.25a.21.21,0,0,1,.21.12M57.44,27.3h-.32a1.694,1.694,0,0,1-1.36-.8c-.38-.6-.75-1.22-1.17-1.8-.1-.13-.09-.33.13-.3a.8.8,0,0,0,.66-.39.582.582,0,0,1,.43-.18.573.573,0,0,1,.43.17,3.134,3.134,0,0,1,1.01,1.58,5.645,5.645,0,0,0,.38.57,1.8,1.8,0,0,0,.14.68c.19.31.05.46-.33.47m-1.65,5.03a.582.582,0,0,1-.34.07,3.358,3.358,0,0,1,.02-1.14c.3-.74.19-1.58.69-2.26a.638.638,0,0,1,.38-.42,1.751,1.751,0,0,1,1.19.18.321.321,0,0,1,.09.32,2.121,2.121,0,0,1-.58,1.57,9.317,9.317,0,0,1-1.45,1.68m2.59-1.5a.46.46,0,0,0,.16-.38c-.03-.2.08-.26.26-.24a.226.226,0,0,1,.29.13,4.259,4.259,0,0,1,.55,1.94.478.478,0,0,1-.26.44,5.3,5.3,0,0,0-1.51.74,1.487,1.487,0,0,1-.81.02c-.22-.07-.58.17-.69-.15-.09-.24.24-.38.4-.53a12.7,12.7,0,0,0,1.61-1.97m2.25-5.15a.2.2,0,0,1,.17-.02.15.15,0,0,1,.11.13,1.61,1.61,0,0,1,.28,1.36,3.128,3.128,0,0,1-.64-1.24.149.149,0,0,1,.08-.23m-.21-.23-.06-.06.12-.06.06.06a.338.338,0,0,1-.12.06m-1.7-.84c.04,0,.07-.01.11-.01.55,1.16,1.1,2.31,1.66,3.46a.286.286,0,0,1,.04.24.2.2,0,0,1-.31.08,2.582,2.582,0,0,1-1.13-.88,2.392,2.392,0,0,1-.37-1.38c.03-.5,0-1.01,0-1.51m3.09.6a12.083,12.083,0,0,1-1.46-1.49c-.67-.98-1.67-1.64-2.34-2.58a.432.432,0,0,1-.16-.56,2.551,2.551,0,0,1,1.63.44,7.882,7.882,0,0,1,1.88,1.37,1.407,1.407,0,0,1,.45,1.09c-.02.54,0,1.08,0,1.73m2.91,7.55a12.917,12.917,0,0,0,1.66-.84,6.449,6.449,0,0,1,2.38-.76c-.24.24-.43.4-.58.58a7.543,7.543,0,0,1-2.22,1.67.928.928,0,0,0-.4.36,4.347,4.347,0,0,1-.81.85,13.233,13.233,0,0,0-1.93,2.29,1.436,1.436,0,0,1-1.22.57,2.707,2.707,0,0,0-1.7.73,5.465,5.465,0,0,0-1.19,1.77.874.874,0,0,0-.01.36,6.677,6.677,0,0,1-.01,1,2.369,2.369,0,0,0,.27,1.33,2.4,2.4,0,0,0,.94.98,3.549,3.549,0,0,0,1.66.6,19.372,19.372,0,0,0,2.41.15,9.745,9.745,0,0,1-.03,2.02c-.19.83-.03,1.66-.18,2.47-.14.77-.02,1.55-.19,2.29a16.17,16.17,0,0,0-.14,3.11,18,18,0,0,0-.21,2.2,7.514,7.514,0,0,1-.01,2.17,23.945,23.945,0,0,1-.49,2.79,6.4,6.4,0,0,1-.21,1.37c.11.75-.33,1.46-.17,2.2.08.35-.26.57-.21.93a.862.862,0,0,1-.16.93.461.461,0,0,0-.01.26,2.848,2.848,0,0,1-.16,1.12,2.041,2.041,0,0,1-.2,1,3.423,3.423,0,0,1-.19,1.38,5.841,5.841,0,0,0-.18,1.56,5.624,5.624,0,0,1-.22,1.47c-.13.77-.38,1.53-.55,2.31a7.358,7.358,0,0,1-.34,1.22,3.165,3.165,0,0,0-.38,1.12,2.347,2.347,0,0,1-.22.45,8.76,8.76,0,0,0-.85,1.74c-.12.45-.63.67-.76,1.13a4.381,4.381,0,0,0-1.14,1.52,1.809,1.809,0,0,1-.33.5,4.911,4.911,0,0,0-1.07,1.29c-.32.44-.72.78-1.05,1.19-.72.93-1.62,1.69-2.36,2.58-.4.47-.8.95-1.24,1.38a22.653,22.653,0,0,0-2.32,2.67,14.145,14.145,0,0,1-1.08,1.11c-.29.32-.75.03-1.06.33a.914.914,0,0,1-.47-.67,5.043,5.043,0,0,0-.37-2.03,11.627,11.627,0,0,0-.63-1.83c-.25-.56-.43-1.15-.65-1.73a4.768,4.768,0,0,0-.91-1.43,3.217,3.217,0,0,1-.53-.79c-.23-.54-.74-.88-.94-1.43a.307.307,0,0,0-.24-.08,2.99,2.99,0,0,1-.83-.63.8.8,0,0,0-.52-.3.824.824,0,0,0-.59.13,3.891,3.891,0,0,0-1.4.89,4.111,4.111,0,0,0-.93,1.37,6.1,6.1,0,0,1-.77,1.13,7.534,7.534,0,0,0-1.16,2.34,13.114,13.114,0,0,0-.67,1.91,7.162,7.162,0,0,0-.5,2.42.86.86,0,0,1-.45.73.15.15,0,0,1-.17.01,5.159,5.159,0,0,1-1.22-.61c-.64-.76-1.33-1.49-1.91-2.31a1.7,1.7,0,0,0-.19-.19c-1.34-1.21-2.49-2.61-3.7-3.94a13.43,13.43,0,0,1-2.41-2.9,9.1,9.1,0,0,1-1.61-2.14,7.7,7.7,0,0,0-.77-.94,1.758,1.758,0,0,1-.48-.72,7.8,7.8,0,0,0-.67-1.36,6.515,6.515,0,0,1-.54-1.41c-.18-.48-.34-.96-.47-1.45-.16-.83-.45-1.63-.66-2.45a1.65,1.65,0,0,1-.03-.7,4.2,4.2,0,0,0-.21-.66,5.279,5.279,0,0,0-.35-2.39,15.407,15.407,0,0,0-.18-1.65c.04-.33-.24-.58-.19-.93a.773.773,0,0,0-.17-.83,15.56,15.56,0,0,0-.15-1.56,18.064,18.064,0,0,0-.25-2.2c-.03-.48-.15-.97-.15-1.47-.44-.35.08-.96-.36-1.31a.277.277,0,0,1,0-.18,16.219,16.219,0,0,0-.19-1.83c.05-.63-.03-1.28.02-1.91.06-.75-.27-1.44-.21-2.2a7.515,7.515,0,0,0-.02-2.17c-.14-.68-.04-1.37-.17-2.02-.18-.92-.02-1.86-.2-2.74s-.06-1.72-.17-2.66c.38,0,.73.01,1.09,0a2.1,2.1,0,0,0,1.11-.16c.29-.16.72.15,1.01-.2a2.737,2.737,0,0,0,1.73-1.24,1.455,1.455,0,0,0,.37-1.21c-.02-.3-.02-.61-.01-.91a3.264,3.264,0,0,0-1.44-2.63,2.755,2.755,0,0,0-1.58-.58,1.46,1.46,0,0,1-1.19-.71,12.014,12.014,0,0,0-1.4-1.71,6.937,6.937,0,0,1-1.32-1.44,1.92,1.92,0,0,0-.93-.57,6.288,6.288,0,0,1-1.7-1.38c-.15-.14-.3-.28-.49-.46a1.476,1.476,0,0,1,1.17.23,6.085,6.085,0,0,1,1.88.96,3.041,3.041,0,0,1,1.28.43c.41.1.85.34,1.26.44,1.02.26,1.94.76,2.95,1.01a10.377,10.377,0,0,0,2.07.48,2.472,2.472,0,0,0,.84.21,3.21,3.21,0,0,1,.82-.01,8.961,8.961,0,0,0,3.2-.61,13.224,13.224,0,0,0,2.67-1.01,4.344,4.344,0,0,0,1.99-.71c.25-.14.41-.04.49.24a1.232,1.232,0,0,1,.17.45,1.113,1.113,0,0,1-.02.48,1.131,1.131,0,0,1-.2.43,1.185,1.185,0,0,1-.35.32,10.189,10.189,0,0,1-2.5,1.88,8.7,8.7,0,0,1-1.44.7,3.291,3.291,0,0,1-1.57.36c-.87-.1-1.7.24-2.56.19a.342.342,0,0,0-.31.14c-.09.1-.33-.02-.31.22a.351.351,0,0,0,.13.41,1.276,1.276,0,0,1,.51.59,1.3,1.3,0,0,1,.09.78,6.557,6.557,0,0,1-.37,2.67,4.728,4.728,0,0,1-1.08,1.83,5.189,5.189,0,0,0-1.05,1.19,2.266,2.266,0,0,1-.96.74,3.087,3.087,0,0,1-1.28.18,3.816,3.816,0,0,0,.15,1.71,1.489,1.489,0,0,1,.02.63,6.389,6.389,0,0,0,.04,1.8,7.2,7.2,0,0,1,.14,1.67c.03.6,0,1.21.01,1.81a.783.783,0,0,0,.05.34,3.309,3.309,0,0,1,.13,1.53.277.277,0,0,0,0,.18c.41.72-.03,1.57.34,2.31a2.274,2.274,0,0,1,.02.9,2.251,2.251,0,0,0,.3,1.52,1.333,1.333,0,0,1,.06.88,1.957,1.957,0,0,0,.27,1.25.465.465,0,0,1,.09.23,5.706,5.706,0,0,0,.18,1.84,2.514,2.514,0,0,0,.16.94c.17.23-.12.66.21.91-.18.87.52,1.61.36,2.48.32.99.13,2.08.55,3.05a5.688,5.688,0,0,0,.21,1.74,9.333,9.333,0,0,0,.68,2.8,22.367,22.367,0,0,0,1.4,2.42c.5.89,1.32,1.53,1.76,2.45a1.572,1.572,0,0,0,.44.45,13.5,13.5,0,0,1,2.42,3.01,12.9,12.9,0,0,0,2.28,2.77,4.647,4.647,0,0,0,1.38.84,1.072,1.072,0,0,0,.86,0,1,1,0,0,0,.35-.26,1.113,1.113,0,0,0,.22-.38,18.948,18.948,0,0,1,1.64-2.69,1.6,1.6,0,0,1,.1-.23,8.1,8.1,0,0,0,1.72-2.38,10.334,10.334,0,0,1,.91-1.16,8.961,8.961,0,0,0,1.28-1.66,1.96,1.96,0,0,1,.57-.38c.15-.14.28-.04.37.09.59.81,1.16,1.65,1.78,2.44a9.077,9.077,0,0,1,1.28,2.02,1.84,1.84,0,0,0,.48.52,7.63,7.63,0,0,1,1.32,1.82c.32.53.65,1.06.93,1.62a1,1,0,0,0,.26.43,1.059,1.059,0,0,0,.43.26,1.088,1.088,0,0,0,.51.03.97.97,0,0,0,.46-.21,6.423,6.423,0,0,0,2.34-2.05,19.48,19.48,0,0,0,1.24-1.67,13.528,13.528,0,0,1,2.45-2.99,2.441,2.441,0,0,0,.63-.83c.17-.52.74-.69.93-1.16a4.018,4.018,0,0,1,.71-1.15,10.189,10.189,0,0,0,1.49-2.94,13.767,13.767,0,0,1,.35-1.67,19.42,19.42,0,0,1,.4-2.94c.04-.45.08-.93.16-1.38a3.75,3.75,0,0,0,.16-1.29,1.139,1.139,0,0,1,.19-.47,14.636,14.636,0,0,0,.33-1.85,4.419,4.419,0,0,0,.22-1.02,1.365,1.365,0,0,1,.15-.93,1.593,1.593,0,0,0,.02-.72,1.352,1.352,0,0,1,.24-1.08.8.8,0,0,0,.12-.67,2.2,2.2,0,0,1,.32-1.6.315.315,0,0,0,.04-.25c-.13-1.05.22-2.07.19-3.11a.683.683,0,0,1,.14-.67.664.664,0,0,0,.03-.44,2.552,2.552,0,0,1,.14-1.52,1.235,1.235,0,0,0,.04-.43c.01-.46.02-.91,0-1.37-.07-1.4.32-2.79.19-4.19a6.179,6.179,0,0,0,.2-.93.446.446,0,0,0-.14-.35.469.469,0,0,0-.35-.15,4.211,4.211,0,0,1-2.75-1.69,9.763,9.763,0,0,1-1.49-3.38,6.352,6.352,0,0,1,0-1.63,4.872,4.872,0,0,1,.44-1.45,1.462,1.462,0,0,0,.08-.69.4.4,0,0,0-.44-.43c-.89.02-1.75-.27-2.65-.2a4.487,4.487,0,0,1-1.4-.34c-1.07-.28-1.84-1.09-2.85-1.47a6.98,6.98,0,0,1-1.82-2.15,1.175,1.175,0,0,1-.1-.41.545.545,0,0,1,.01-.22.524.524,0,0,1,.11-.19.368.368,0,0,1,.19-.11.407.407,0,0,1,.22-.01.839.839,0,0,1,.41.11,7.415,7.415,0,0,0,1.83.66,13.412,13.412,0,0,1,1.5.54c.76.27,1.55.48,2.3.81a.471.471,0,0,0,.15.06,6.58,6.58,0,0,1,1.47.19,11.668,11.668,0,0,0,1.45-.02c.67-.1,1.33-.28,1.99-.44,1.86-.42,3.54-1.28,5.33-1.71m5.68-1.23a5.138,5.138,0,0,1,.83-1.03.266.266,0,0,1,.31-.09.219.219,0,0,1,.07.32,7.818,7.818,0,0,1-.81,1.85c-.47.65-.86,1.35-1.34,1.99a5.079,5.079,0,0,1-.57.47c-.88.93-2.08,1.48-2.88,2.5a6.249,6.249,0,0,1-1.38.83.732.732,0,0,1-.64-.5,1.311,1.311,0,0,1,0-.28.52.52,0,0,1,.11-.49,9.317,9.317,0,0,0,1.15-1.35,23.552,23.552,0,0,1,2.85-2.33,13.372,13.372,0,0,0,2.3-1.89m.49,10.88a5.787,5.787,0,0,0-.18,2.19,1.93,1.93,0,0,1-.68,1.26,12.113,12.113,0,0,1-3.64,2.79,1.713,1.713,0,0,1-.59.11c0-1.59,0-3.11-.01-4.63a1.053,1.053,0,0,0-.16-.94.415.415,0,0,1,.1-.48,6.505,6.505,0,0,0,.58-1.48.576.576,0,0,0,.02-.26.708.708,0,0,1,.31-.79,4.275,4.275,0,0,1,.83-.64,13.031,13.031,0,0,0,2.8-2.44.553.553,0,0,0,.07-.25.166.166,0,0,1,.14-.1.175.175,0,0,1,.16.05.5.5,0,0,1,.25.44v5.17m-5.2,6.51c-.07-.02-.08-.08-.03-.11a.784.784,0,0,1,.14-.05.171.171,0,0,1-.11.16m5,.64a22.444,22.444,0,0,0-.16,3.93.541.541,0,0,1-.19.46c-.85.8-1.49,1.8-2.38,2.56a14.529,14.529,0,0,1-3.3,2.18c.14-.73-.14-1.33.22-1.88a.818.818,0,0,0,.01-.27,3.75,3.75,0,0,1,.16-1.29c.14-.37,0-.79.17-1.2a2.32,2.32,0,0,0,.02-1.17c-.09-.6.25-1.15.19-1.74a.355.355,0,0,1,.18-.29,5.917,5.917,0,0,1,1.72-1.34,13.229,13.229,0,0,0,2.82-1.74.442.442,0,0,1,.41-.1c.24.03.15.22.15.35a7.218,7.218,0,0,1-.02,1.54m-7.5-6.44c-.21-.01-.42,0-.68,0a2.378,2.378,0,0,1-1.15-.17,2.439,2.439,0,0,1-.62-.49,2.309,2.309,0,0,1-.42-.66,2.476,2.476,0,0,1-.18-.77,2.258,2.258,0,0,1,.09-.78c.08-.21.11-.44.2-.64a1.341,1.341,0,0,1,.72-.89,1.855,1.855,0,0,1,1.29-.1,4.848,4.848,0,0,1,1.43.69,2.01,2.01,0,0,1,.85,1.64,2.921,2.921,0,0,1-.5,1.62.992.992,0,0,1-.43.43,1.018,1.018,0,0,1-.6.12m7.15,15a29.9,29.9,0,0,0-.18,3.28,3.689,3.689,0,0,0-.2,1.28,3.629,3.629,0,0,1-.71,1.43,4.8,4.8,0,0,1-1.64,1.29,22.521,22.521,0,0,1-2.85,1.24c-.34.12-.62.05-.98.16a6.051,6.051,0,0,0,.19-1.53,1.645,1.645,0,0,0,.18-1.19c.02-.58,0-1.15,0-1.73a15.625,15.625,0,0,0,.2-1.92.638.638,0,0,1,.15-.37.583.583,0,0,1,.34-.19,6.093,6.093,0,0,0,2.22-1.21,14.5,14.5,0,0,0,1.86-1.45c.43-.42.94-.78,1.41-1.28.02-.01.02,0,.04-.01a.3.3,0,0,0,.07-.05v.04a.127.127,0,0,1,.06.01.16.16,0,0,1-.07.09,14.837,14.837,0,0,0-.09,2.11m-1.09,9.66a12.783,12.783,0,0,1-.2,2.55,1.085,1.085,0,0,1-.39.74,17.666,17.666,0,0,1-1.88,1.58,22.5,22.5,0,0,1-2.4,1.45c-.53.28-1.12.37-1.64.65-.17.1-.27-.07-.23-.25a10.548,10.548,0,0,0,.38-1.84c.41-.36-.07-.95.35-1.31-.14-.6.27-1.14.18-1.74.08-.39.14-.79.19-1.19-.03-.15.15-.15.2-.21.26-.33.73,0,.96-.34a10.621,10.621,0,0,0,2.13-.77,6.857,6.857,0,0,0,1.94-1.04.439.439,0,0,1,.27-.19.387.387,0,0,1,.33.06,2.455,2.455,0,0,1-.18,1.31.83.83,0,0,0-.01.54m-1.64,7c-.31.9-.58,1.81-.98,2.68a.755.755,0,0,0-.11.14c-.12,1.2-1.01,1.58-1.98,1.89a13.579,13.579,0,0,1-2.5.75c-.35.32-.85.04-1.23.32-.17.12-.35-.06-.28-.29a11.775,11.775,0,0,1,.45-1.17,9.607,9.607,0,0,0,.8-2.39.585.585,0,0,1,.39-.51,6.379,6.379,0,0,1,1.35-.48c.49-.17.91-.45,1.39-.59a4.167,4.167,0,0,0,1.35-.71c.3-.23.73-.29,1.05-.53.13-.1.23-.33.43-.19a.756.756,0,0,1,.08.49,1.031,1.031,0,0,1-.21.59m-2.56,6.16a5.878,5.878,0,0,1-.7,1.53,4,4,0,0,0-.73,1.42c-.18.6-.57,1.09-.77,1.68a1.057,1.057,0,0,1-.51.47,26.5,26.5,0,0,1-3.56,1.28,9.8,9.8,0,0,1-3.41.32,1.349,1.349,0,0,0,.63-1c.32-.23.38-.67.7-.89a2.159,2.159,0,0,1,.56-.78,2.052,2.052,0,0,0,.77-.75,16.874,16.874,0,0,0,1.02-1.48.89.89,0,0,1,.37-.42.878.878,0,0,1,.55-.12,1.5,1.5,0,0,0,.59-.1,36.757,36.757,0,0,0,4.2-1.49.331.331,0,0,1,.24,0,.23.23,0,0,1,.05.33m-4.07,7.44c-.15.14-.15.36-.32.51a9.348,9.348,0,0,0-1.42,1.77c-.36.49-.73.97-1.09,1.46a19.466,19.466,0,0,1-1.99,2.17,1.883,1.883,0,0,0-.41.56c-.18.4-.45.37-.73-.03a5.4,5.4,0,0,0-2.47-2.11,7.758,7.758,0,0,0-.96-.33c-.4-.09-.42-.3-.19-.62a25.9,25.9,0,0,1,2.25-2.43.942.942,0,0,1,.93-.39,4.822,4.822,0,0,0,.76,0c.95.07,1.9-.32,2.89-.18a4.767,4.767,0,0,1,1.06-.3,7.389,7.389,0,0,1,1.46-.42.315.315,0,0,1,.25.04.2.2,0,0,1-.02.3m-6.72,7.8c-.61.46-.86,1.23-1.58,1.63a14.784,14.784,0,0,0-1.47,1.26,18.4,18.4,0,0,0-2.69,2.29c-.23.26-.42.15-.57-.21a5.276,5.276,0,0,0-1.13-1.8q-.93-.915-1.86-1.86c-.14-.14-.14-.22.08-.38a19.216,19.216,0,0,0,4.09-3.27,1.642,1.642,0,0,1,.85-.54,1.561,1.561,0,0,1,1,.06,10.459,10.459,0,0,1,1.19.41,4.25,4.25,0,0,1,2.09,2.11,1.009,1.009,0,0,1,.07.15.522.522,0,0,1-.07.15m-7.49,6.6c-.35.41-.85.62-1.23,1.01a9.914,9.914,0,0,1-1.18,1.06c-.58.43-1.15.89-1.72,1.34a9.7,9.7,0,0,0-.98.58.981.981,0,0,1,.14-.96,6.625,6.625,0,0,0,.15-1.66c0-.27-.01-.55,0-.82a8.4,8.4,0,0,0-.63-3.28c-.15-.45-.17-.47.3-.68a8.3,8.3,0,0,0,1.75-1.03.37.37,0,0,1,.31-.13.448.448,0,0,1,.31.14c.46.46,1.04.78,1.47,1.28a7.106,7.106,0,0,1,1.41,2.14c.25.59.24.59-.1,1.01m-6.4-4.39a.545.545,0,0,1-.42.18.576.576,0,0,1-.42-.18,9.708,9.708,0,0,0-2.08-1.12,4.985,4.985,0,0,0-1.25-.71,3.06,3.06,0,0,1-1-1.86,15.71,15.71,0,0,1,.58-2.95c.01-.09.13-.16.18-.28.13-.37.62-.52.56-1.06a6.842,6.842,0,0,1,.18-1.19,2.907,2.907,0,0,1,.43-1.17c.44-.79,1.01-1.5,1.42-2.32a8.573,8.573,0,0,1,.64-.82.972.972,0,0,1,1.2-.28,1.022,1.022,0,0,1,.34.28c.59.8,1.11,1.65,1.63,2.5q.375.615.69,1.26a1.637,1.637,0,0,1,.2.92,6.006,6.006,0,0,1,.18,1.19.338.338,0,0,0,.13.22,2.017,2.017,0,0,1,.65,1.18,8.565,8.565,0,0,1,.49,2.34,2.478,2.478,0,0,1-.35,1.27,2.444,2.444,0,0,1-.94.92,34.525,34.525,0,0,0-3.04,1.68m-1.68,1.71c-.32.29-.07.75-.37,1.03-.1.73-.17,1.46-.2,2.19.06.62,0,1.26.02,1.9a3.83,3.83,0,0,1,.12,1.58c-.31-.4-.82-.27-1.13-.59s-.66-.57-1-.86a11.932,11.932,0,0,1-1.74-1.51,1.4,1.4,0,0,0-.47-.37c-.38-.17-.4-.45-.25-.88a3.269,3.269,0,0,1,.66-.9,5.063,5.063,0,0,1,2.07-1.85,1.522,1.522,0,0,0,.71-.49.557.557,0,0,1,.36-.24.636.636,0,0,1,.43.06c.25.13.51.24.75.38s.27.33.04.55m-6.01,1.7c-.13.23-.37.33-.51.16-.38-.42-.92-.64-1.29-1.08a6.261,6.261,0,0,0-1.77-1.42,2.768,2.768,0,0,0-.89-.71c-.63-.76-1.53-1.24-2.17-1.99-.14-.16-.14-.24.09-.38a4.551,4.551,0,0,1,1.52-.51,11.022,11.022,0,0,1,2.21-.4,7.272,7.272,0,0,1,.93-.18,1.174,1.174,0,0,0,.93-.15.581.581,0,0,1,.39-.01.618.618,0,0,1,.32.23c1.01.81,2.1,1.5,3.17,2.23a4.761,4.761,0,0,1,.55.55,1.367,1.367,0,0,1-.33.25,4.688,4.688,0,0,0-2.41,2.17c-.27.4-.5.82-.74,1.24m-7.91-6.31a12.046,12.046,0,0,1-1.15-1.33,13.411,13.411,0,0,1-1.17-1.33A3.193,3.193,0,0,0,21.3,91.7a1.991,1.991,0,0,1-.95-1.07,2.633,2.633,0,0,1-.38-.56.5.5,0,0,1,.04-.34c.07-.12.19-.07.3.01a14.8,14.8,0,0,0,2.41.97.893.893,0,0,0,.43.04,10.287,10.287,0,0,0,1.36,0c.81-.07,1.57.31,2.37.2a5.223,5.223,0,0,0,.56.18.824.824,0,0,1,.35-.04.829.829,0,0,1,.6.35.825.825,0,0,1,.14.32,1.087,1.087,0,0,0,.48.34c.56.51,1.08,1.06,1.61,1.59a.459.459,0,0,1,.07.16.358.358,0,0,1-.33.35c-.4.04-.81.12-1.2.16a20.8,20.8,0,0,0-2.2.42,4,4,0,0,0-1.61.7c-.23.17-.35.25-.58.01m-6.2-8.08a5.1,5.1,0,0,1-1.14-1.51,9.61,9.61,0,0,0-.53-.87,1.1,1.1,0,0,1-.19-.99,3.317,3.317,0,0,1,1.42.26,6.9,6.9,0,0,0,2.81.46c.24-.02.49.02.73-.01a3.789,3.789,0,0,1,.65.21.9.9,0,0,1,.48.23.854.854,0,0,1,.26.46.623.623,0,0,0,.11.4,13.223,13.223,0,0,0,2.1,2.13,9.064,9.064,0,0,1,1.37,1.33.191.191,0,0,1,.06.24.2.2,0,0,1-.13.12.183.183,0,0,1-.17-.06.864.864,0,0,0-.76-.14,3.24,3.24,0,0,1-1.24-.08c-.36-.2-.81.12-1.07-.29a4.434,4.434,0,0,1-1.76-.36,10.374,10.374,0,0,1-3-1.53m-1.93-3.52a.612.612,0,0,1,.05.12.155.155,0,0,1-.15-.09c.01-.07.07-.08.1-.03m-2.11-3.87a2.521,2.521,0,0,0-.21-.54,13.111,13.111,0,0,1-1.62-3.79,3.343,3.343,0,0,1-.36-.85c-.01-.12,0-.25,0-.42a4.389,4.389,0,0,1,1.09.42c1.38.7,2.8,1.28,4.23,1.84a.722.722,0,0,1,.49.26.73.73,0,0,1,.18.53c-.04.44.44.69.37,1.12a20.407,20.407,0,0,0,1.87,3.59,9.123,9.123,0,0,1,.58,1.12,2.992,2.992,0,0,1-.99-.02,11.6,11.6,0,0,1-1.64-.42,9.031,9.031,0,0,0-1.73-.65,3.467,3.467,0,0,1-1.39-.83,3.314,3.314,0,0,1-.87-1.36m-2.37-5.73c.02-.08.08-.09.11-.04a.142.142,0,0,1,.02.06c-.08.02-.14,0-.13-.02m-1.21-3.74a9.85,9.85,0,0,1-.25-1.44,7.027,7.027,0,0,1,0-1.45c.04-.37-.26-.65-.2-1.01.02-.09-.02-.2.08-.24a.26.26,0,0,1,.24.03,10.069,10.069,0,0,0,2.88,1.81c.69.39,1.38.77,2.08,1.13a1.887,1.887,0,0,1,.66.34,2,2,0,0,1,.23.89c.05,1.16.54,2.25.57,3.4a.785.785,0,0,0,.21.45.912.912,0,0,1,.13.8c-.29.17-.42-.1-.59-.16a21.382,21.382,0,0,1-3.91-1.97,4.157,4.157,0,0,1-2.13-2.58M9.78,60.4a17.854,17.854,0,0,0-.2-1.92c.04-.67,0-1.34.01-2a.4.4,0,0,0-.13-.31.26.26,0,0,1-.03-.24c.07-.14.21-.06.33-.08a.24.24,0,0,1,.22.12,22.44,22.44,0,0,0,3.1,2.39,4.2,4.2,0,0,0,1.4.58.475.475,0,0,1,.41.11c.13.18.39-.04.48.14a.842.842,0,0,1,.04.52c-.07.4.28.69.21,1.11a2.357,2.357,0,0,0,.13,1.02,7.489,7.489,0,0,1,.03,1.77,7.53,7.53,0,0,0,.21,2.41,1.932,1.932,0,0,1-.01,1.4c-.12.21.21.32.31.5a.331.331,0,0,1,0,.24.158.158,0,0,1-.24.05,25.97,25.97,0,0,1-3.35-2.03c-.33-.29-.67-.58-1-.85a5.245,5.245,0,0,1-1.55-2.54,4.8,4.8,0,0,1-.37-2.39M9.39,50.36a19.624,19.624,0,0,1-.16-3.83.29.29,0,0,1,.51-.24c.56.46,1.19.83,1.72,1.33a20.615,20.615,0,0,0,2.59,2.07.859.859,0,0,1,.46.9c-.07,1.1.3,2.18.17,3.28a5.691,5.691,0,0,1,.2.93,2.176,2.176,0,0,0,.13.84,15.625,15.625,0,0,0,.2,1.92c.09.28-.02.31-.34.21a6.014,6.014,0,0,1-2.13-1.21c-.41-.35-.89-.63-1.34-.95a4.823,4.823,0,0,1-1.39-1.42,1.524,1.524,0,0,0-.38-.38.613.613,0,0,1-.23-.55c.02-.48,0-.97,0-1.45a5.413,5.413,0,0,0-.01-1.45M9.05,37.58c0-.15-.01-.3,0-.45a.385.385,0,0,1,.33-.37c.22-.05.15.2.23.28a14.738,14.738,0,0,0,2.63,2.42,10.2,10.2,0,0,0,1.42.93c.09.04.16.16.1.21a.811.811,0,0,0-.01.95,1.584,1.584,0,0,0,.37.95,2.018,2.018,0,0,0,.14.3.307.307,0,0,1,.03.41.78.78,0,0,0-.15.76c-.01,1.18-.01,2.36-.01,3.54v.54a1.487,1.487,0,0,1-.94-.54c-.79-.69-1.63-1.31-2.47-1.93a2.643,2.643,0,0,1-.94-.91,2.508,2.508,0,0,1-.38-1.25,3.526,3.526,0,0,1-.36-2.21l.01-3.63m9.1,1.01a1.205,1.205,0,0,1,.83.18,1.23,1.23,0,0,1,.51.69,3.04,3.04,0,0,1,.03,2.57,1.89,1.89,0,0,1-.67.76,2.043,2.043,0,0,1-.96.33,2.437,2.437,0,0,1-.54,0c-.18,0-.36.01-.54,0a1.046,1.046,0,0,1-.43-.03,1.067,1.067,0,0,1-.38-.2.958.958,0,0,1-.27-.33,1.018,1.018,0,0,1-.12-.41,1.432,1.432,0,0,1-.37-1.39.823.823,0,0,1,.17-.48,3.23,3.23,0,0,1,1.15-1.2,3.33,3.33,0,0,1,1.59-.49M8.34,30.75a.209.209,0,0,1-.04-.17.215.215,0,0,1,.1-.15.232.232,0,0,1,.18-.04.252.252,0,0,1,.15.1,9.61,9.61,0,0,1,.95,1.16,19.539,19.539,0,0,0,2.33,1.83,15.961,15.961,0,0,1,3.07,2.67,10.076,10.076,0,0,0,.79.94.949.949,0,0,1-.28,1.24.212.212,0,0,1-.31,0,5.551,5.551,0,0,1-1.77-1.22,5.731,5.731,0,0,0-1.62-1.32,6.6,6.6,0,0,1-1.27-1.09,7.568,7.568,0,0,1-1.16-1.69,2.122,2.122,0,0,0-.21-.36,5.138,5.138,0,0,1-.91-1.9m8.33.28a2.447,2.447,0,0,1,.66-1.17c.22.12.06.31.1.47a.426.426,0,0,0,.14.31.42.42,0,0,0,.32.11,1.053,1.053,0,0,0,1.06-.3c.19-.23.48-.04.48.29v2a5.4,5.4,0,0,1-1.58-.4,4.314,4.314,0,0,0-.77-.32.687.687,0,0,1-.53-.43.579.579,0,0,1,.12-.56m.31-9.71a1.616,1.616,0,0,0-.37-.19c-.68.11-.61-.62-1-.85-.08-.05.02-.23.13-.3a11.169,11.169,0,0,1,3.42-1.61,10.286,10.286,0,0,1,2.21-.35c.53-.37,1.18-.09,1.77-.32a2.179,2.179,0,0,1,1.38.1,8.531,8.531,0,0,1,1.21.39,4.756,4.756,0,0,1,1.48.81.643.643,0,0,0,.5.12,1.086,1.086,0,0,1,.93.76,4.395,4.395,0,0,1,.24,1.9,1.674,1.674,0,0,1-.99,1.28,2.1,2.1,0,0,1-.95.28,1.936,1.936,0,0,1-.97-.21,2.522,2.522,0,0,1-.71-.94.238.238,0,0,1,.06-.33,2.277,2.277,0,0,0,.38-.38.4.4,0,0,1,.47-.18c.29.05.13.28.16.43.02.12-.02.25.01.36a.467.467,0,0,0,.28.27.458.458,0,0,0,.38-.01,1.719,1.719,0,0,0,.59-.93,1.3,1.3,0,0,0-.16-1.1,1.72,1.72,0,0,0-1.19-.25,3.41,3.41,0,0,1-.83.23c-.38.29-.77.6-1.17.87a1.419,1.419,0,0,0-.43.89c-.17.84-.9,1.21-1.4,1.78-.03.04-.22.03-.22-.07a1.6,1.6,0,0,0-.2-.64.629.629,0,0,1,.2-.46c.29-.67.67-1.29,1-1.95a1.172,1.172,0,0,0,.21-1.02,7.505,7.505,0,0,0-2.67.18,4.026,4.026,0,0,0-2.29,1.24c-.63.6-.62.59-1.46.2m-1.22,5.25a3.989,3.989,0,0,1-1.49,1.24,1.429,1.429,0,0,1-1.19.17.585.585,0,0,1,.27-.66,24.291,24.291,0,0,1,2.15-2.39,1.036,1.036,0,0,1,.8-.18,2.092,2.092,0,0,1-.54,1.82m-3.9-1.47a.647.647,0,0,1-.75-.06c-.2-.3.23-.41.38-.61a4.806,4.806,0,0,1,.5-.51,1.31,1.31,0,0,1,1.08-.45c.65.03,1.31.01,2,.01a.524.524,0,0,1-.1.18,12.9,12.9,0,0,1-1.53.88,16.571,16.571,0,0,1-1.58.56m-1.43-2.71a.3.3,0,0,1-.27-.16.307.307,0,0,1,.01-.32,1.95,1.95,0,0,1,1.67-.78c.61-.06,1.2.29,1.83.17a2.967,2.967,0,0,0,1.13.34,3.157,3.157,0,0,0,1.1.43.61.61,0,0,1,.28.19.5.5,0,0,0-.05.13h-5.7M8.37,19.11a9.548,9.548,0,0,1-2.17-1.5c-.13-.15-.36-.02-.43-.33a2.746,2.746,0,0,1,1.2.18,8.1,8.1,0,0,0,1.1.16c.54.21,1.08.45,1.64.64a3.093,3.093,0,0,1,1.56.81,2.444,2.444,0,0,1,1.12.57.222.222,0,0,1,.12.23c-.02.17-.14.15-.26.16a6.952,6.952,0,0,1-3.88-.92M4.01,11.46a.252.252,0,0,1-.05-.25.179.179,0,0,1,.13-.11.185.185,0,0,1,.17.05c.67.48,1.51.59,2.2,1.04.25.17.54.31.8.47a1.383,1.383,0,0,0,1.16.47,17.356,17.356,0,0,1,1.82,1.07,2.049,2.049,0,0,0,1.04.54.455.455,0,0,1,.32.1.448.448,0,0,1,.16.3.568.568,0,0,1-.43.55,2.77,2.77,0,0,1-1.21.15c-.72.16-1.38-.26-2.1-.2a1.106,1.106,0,0,1-.81-.44,20.813,20.813,0,0,1-3.2-3.74M4.3,6.3a3.3,3.3,0,0,1-.38-.75,2.263,2.263,0,0,0-.64-.83.36.36,0,0,1-.07-.33,1.168,1.168,0,0,1-.34-.29.878.878,0,0,1,.23-.07.144.144,0,0,1,.12.09c.03.17-.12.04-.16.08.06.04.1.08.16.12V4.2a1.137,1.137,0,0,1,.45.01,3.661,3.661,0,0,1,1,.65A17.994,17.994,0,0,1,6.15,6.13a5.058,5.058,0,0,0,1.23.98,8.879,8.879,0,0,1,1.25.94,9.812,9.812,0,0,0,1.59,1.21,1.912,1.912,0,0,1,.61.48c.42.51,1.02.8,1.47,1.28a.32.32,0,0,1,.19.29Q8.74,8.535,5,5.73c7.32,5.8,7.32,6.09,7.1,6.23a.481.481,0,0,1-.56-.05,17.225,17.225,0,0,0-2.59-.98A4.713,4.713,0,0,1,6.88,9.78a5.058,5.058,0,0,1-.62-.84C5.7,7.99,4.89,7.23,4.3,6.3M17.12,17.94a8.113,8.113,0,0,0-1.92,1.14.866.866,0,0,1-.95.09,7.587,7.587,0,0,1-1.17-.68,14.5,14.5,0,0,0-2.1-.82.539.539,0,0,1-.32-.11.388.388,0,0,1-.17-.3c.03-.17.16-.16.27-.14a16.168,16.168,0,0,0,2.19-.18.836.836,0,0,0,.31-.12.874.874,0,0,1,.74.05,8.73,8.73,0,0,0,1.72.66c.45.1.87.25,1.4.41m-2.73-4.65a1.065,1.065,0,0,1,.64.23,21.269,21.269,0,0,0,2.68,1.39,15.547,15.547,0,0,0,1.72.65c.46.13.9.32,1.35.45a.727.727,0,0,1,.31.14.276.276,0,0,1,.13.31.178.178,0,0,1-.21.11,7.843,7.843,0,0,1-1.99.17,10.991,10.991,0,0,1-3.51-.53,2.122,2.122,0,0,1-.68-.32,8.558,8.558,0,0,1-1.72-1.34,2.029,2.029,0,0,0-.71-.48,7.309,7.309,0,0,1-.62-.48.385.385,0,0,1-.19-.55.371.371,0,0,1,.26-.18.352.352,0,0,1,.31.09,5.879,5.879,0,0,0,2.23.34m9.99,12.95a.868.868,0,0,0-.23.27.821.821,0,0,1-.57.61,3.158,3.158,0,0,1-1.29.18.2.2,0,0,1-.17-.14.2.2,0,0,1,.03-.21c.28-.34.01-.92.5-1.16a2.8,2.8,0,0,1,.57-1.22,2.655,2.655,0,0,1,.52-.59.585.585,0,0,1,.4-.15.594.594,0,0,1,.4.14c.14.12.25.27.39.39a.785.785,0,0,1,.51.17,11.593,11.593,0,0,1-1.06,1.71m-2.14,3.43c-.01-.02-.05-.04-.06-.06a.647.647,0,0,1,.06-.77.67.67,0,0,1,.73-.26.785.785,0,0,1,.6.07c.29.25.3.67.57.94a18.482,18.482,0,0,1,.36,2.57.258.258,0,0,1-.13.25,1.642,1.642,0,0,1-.78-.67,5.847,5.847,0,0,1-1.35-2.07m-1.56.19c.03-.24.18-.19.32-.2.21-.02.26.1.23.28a1.183,1.183,0,0,0,.32.86,12.388,12.388,0,0,0,1.73,2.1.485.485,0,0,1,.31.52,3.216,3.216,0,0,1-1.94-.18.6.6,0,0,0-.31-.12.415.415,0,0,1-.31,0,.5.5,0,0,1-.24-.19,1.592,1.592,0,0,1-.28-.7c.01-.6.02-1.21-.01-1.81a2.811,2.811,0,0,1,.18-.56M19.44,28.1c.16-.33.36-.63.51-.96a26.808,26.808,0,0,1,1.28-2.71,19.1,19.1,0,0,1-.02,2.27,1.531,1.531,0,0,1-.78,1.27,1.3,1.3,0,0,1-.72.42.475.475,0,0,1-.24-.06.215.215,0,0,1-.03-.23m.13-2.74-.07.12c-.03-.01-.04-.03-.06-.06a.338.338,0,0,1,.06-.12.435.435,0,0,1,.07.06m-.16.42a.416.416,0,0,1,0,.27,3.732,3.732,0,0,1-.66,1.08,1.889,1.889,0,0,1,.39-1.45.181.181,0,0,1,.16-.01.172.172,0,0,1,.11.11m-1.27-.53c0-.76-.01-1.39,0-2.01a1.116,1.116,0,0,1,.36-.76,4.815,4.815,0,0,1,1.66-1.27,7.056,7.056,0,0,1,.98-.52,5.676,5.676,0,0,1,1.09-.11,3.2,3.2,0,0,1-.46.83,15.555,15.555,0,0,0-1.84,1.88c-.51.68-1.17,1.19-1.79,1.96m8.34,7.86a1.2,1.2,0,0,0-.4.14c-.34.16-.48.05-.48-.32V31.3a5.68,5.68,0,0,0,1.08,1.36.319.319,0,0,1,0,.27.324.324,0,0,1-.2.18m.55-2.95a.681.681,0,0,1-.31.08.65.65,0,0,1-.31-.08.611.611,0,0,1-.24-.21.656.656,0,0,1-.12-.3,4.322,4.322,0,0,0-.32-.69,1.017,1.017,0,0,1-.12-1.26,1.4,1.4,0,0,1,.15-.64,2.9,2.9,0,0,1,1.11,1.36,3.038,3.038,0,0,1,.16,1.74M39.61,60.07c-.01-.19.2-.22.19-.38a.142.142,0,0,1,.05-.16.179.179,0,0,1,.17-.04.234.234,0,0,1,.15.17,2.129,2.129,0,0,1,.18,1.22,2.837,2.837,0,0,1-.19,1.19.146.146,0,0,1-.18.15.152.152,0,0,1-.19-.14,6.186,6.186,0,0,1-.18-2.01m.4,2.94c.4.43.73.78,1.07,1.12a.466.466,0,0,1,.17.33.491.491,0,0,1-.11.35,1.194,1.194,0,0,1-1.35.86,1.446,1.446,0,0,1-.71-.45,1.551,1.551,0,0,1-.37-.76.369.369,0,0,1,.15-.3c.09-.08.17-.17.26-.25Zm-6.2-29.28a3.115,3.115,0,0,1,1.79-.95,8.987,8.987,0,0,1,1.72-.02c.35.39.85.04,1.25.27a6.17,6.17,0,0,0,1.18.43,1.355,1.355,0,0,0,1.26-.19,1.756,1.756,0,0,1,1.23-.34c.6.02,1.21.03,1.82,0a10.406,10.406,0,0,0,1.56.2.4.4,0,0,1,.4.31,11.671,11.671,0,0,0,2.34,2.47,12.874,12.874,0,0,0,3.45,2.4,3.984,3.984,0,0,0,1.54.46,7.06,7.06,0,0,1,.91.21.475.475,0,0,1,.36.2.518.518,0,0,1,.1.4,3.986,3.986,0,0,0,.33,1.67c.15.55.25,1.12.42,1.65a6.954,6.954,0,0,0,1.05,2.28,2.321,2.321,0,0,1,.34.59,2.551,2.551,0,0,0,.74,1.06,3.248,3.248,0,0,0,1.14,1.16.53.53,0,0,1,.16.28.508.508,0,0,1,.17.34.5.5,0,0,1-.12.37,1.389,1.389,0,0,0-.06.7,4.412,4.412,0,0,1-.13,1.49c-.21.42.14.96-.23,1.36a17.043,17.043,0,0,1-.19,2.02.926.926,0,0,1-.15.85.344.344,0,0,0-.05.26.368.368,0,0,0,.14.22.158.158,0,0,1,.06.23c-.43.34-.05.84-.28,1.26A2.184,2.184,0,0,0,58,58.61c.04.37-.24.64-.22,1.02a1.069,1.069,0,0,1-.14,1.02.2.2,0,0,0-.02.17c.13.99-.26,1.95-.17,2.93a22.007,22.007,0,0,1-.23,2.28,1.125,1.125,0,0,0,.03,1.04c-.36.45-.03,1.04-.28,1.52a.49.49,0,0,0-.08.24,6.544,6.544,0,0,1-.01.99,1.864,1.864,0,0,1-.25.89c-.22.29.05.66-.27.91a1.01,1.01,0,0,0-.01.62,1.382,1.382,0,0,1-.22.99.858.858,0,0,0-.15.49,5.381,5.381,0,0,1-.52,1.88c-.28.63-.47,1.32-.75,1.96a3.837,3.837,0,0,1-.76,1.33,5.548,5.548,0,0,0-.71.89,26.338,26.338,0,0,0-1.64,2.14,2,2,0,0,0-.92,1.24,2.383,2.383,0,0,1-.47.53,1.548,1.548,0,0,0-.56.77c-.07.39-.52.29-.62.64-.11.41-.48.67-.64,1.1-.21.54-.68.53-1.03.05-.42-.58-.82-1.17-1.19-1.78a7.644,7.644,0,0,1-.71-.98,6.338,6.338,0,0,0-.72-.98c-.55-.79-1.23-1.46-1.77-2.26a7.946,7.946,0,0,0-1.08-1.09.845.845,0,0,1-.3-.7,22.436,22.436,0,0,1-.17-2.84c-.35-.89-.03-1.84-.2-2.74a26.913,26.913,0,0,1-.16-4.11,3.713,3.713,0,0,0-.16-.47,1.711,1.711,0,0,1,.02-.87,1.621,1.621,0,0,1,.47-.74,5.079,5.079,0,0,0,1.36-1.88.721.721,0,0,0,.11-.45.743.743,0,0,0-.17-.43,3.148,3.148,0,0,0-1.15-1.17.232.232,0,0,1-.13-.28,2.673,2.673,0,0,1,.17-.84,12.179,12.179,0,0,0,.01-1.91,7.326,7.326,0,0,0-.42-1.1.966.966,0,0,1,.04-.89,2.078,2.078,0,0,0,.23-.63,1.088,1.088,0,0,1,.72-.9,1.328,1.328,0,0,0,.51-.46.607.607,0,0,0-.86-.19.935.935,0,0,0-.51.31.392.392,0,0,1-.21.17.361.361,0,0,1-.27-.01c-.26-.07-.13-.3-.13-.46-.02-.44-.01-.89-.01-1.31-.1-.03-.12-.04-.15-.05-.2.11-.39.24-.58.37-.19-.13-.38-.26-.58-.37-.03.01-.05.02-.15.05,0,.45.01.93,0,1.4,0,.13.09.33-.14.37a.35.35,0,0,1-.41-.09,1.286,1.286,0,0,0-.5-.33.654.654,0,0,0-.54-.13.623.623,0,0,0-.45.32,1.1,1.1,0,0,0,.28.2,2.544,2.544,0,0,1,1.17,1.5,1.494,1.494,0,0,1-.01,1.54,2.275,2.275,0,0,0-.31,1.42,2.672,2.672,0,0,0,.15,1.48,1.1,1.1,0,0,1,.02.54.261.261,0,0,1-.21.3,3.456,3.456,0,0,0-1.17,1.29.684.684,0,0,0,.04.74,6,6,0,0,0,1.17,1.7c.8.78.79.79.54,1.99a1.7,1.7,0,0,0,0,.45c0,.4-.02.79,0,1.19.1,1.61-.32,3.21-.18,4.83a11.447,11.447,0,0,0-.21,2.19,7.359,7.359,0,0,0-.15,1.48.518.518,0,0,1-.24.45,13.277,13.277,0,0,0-1.9,2.13c-.63.82-1.3,1.61-1.88,2.48-.55.83-1.17,1.63-1.68,2.49a2.062,2.062,0,0,1-.25.26.375.375,0,0,1-.31.15.4.4,0,0,1-.31-.14.714.714,0,0,1-.31-.31,1.012,1.012,0,0,0-.46-.82.7.7,0,0,0-.57-.57c-.08-.01-.06-.15-.09-.23a1.634,1.634,0,0,0-.3-.51,3.415,3.415,0,0,1-1.15-1.71c-.07-.31-.61-.14-.57-.56a7.36,7.36,0,0,1-1.13-1.36,13.257,13.257,0,0,1-1.78-2.44,3.724,3.724,0,0,0-.42-1.01,1.422,1.422,0,0,1-.3-.97,1.567,1.567,0,0,0-.22-.45,1.25,1.25,0,0,1-.3-.87c-.38-.44-.01-1.04-.36-1.49a2.946,2.946,0,0,1-.2-1.47,9.308,9.308,0,0,0-.44-1.45.6.6,0,0,1-.09-.32,12.5,12.5,0,0,0-.2-2.2,2.536,2.536,0,0,1,.01-1.13,4.751,4.751,0,0,0-.19-.83.912.912,0,0,0-.1-.86.9.9,0,0,1-.05-.7c.09-1.13-.32-2.24-.19-3.38-.17-1.03-.29-2.07-.37-3.12-.1-.46-.14-.92-.21-1.37-.04-.23-.2-.39.03-.59a.191.191,0,0,0,0-.18c-.41-.62-.01-1.37-.33-2.05a4.463,4.463,0,0,1-.18-1.36,11.772,11.772,0,0,1-.23-2.65.716.716,0,0,0-.1-.6.4.4,0,0,1-.07-.38.422.422,0,0,1,.26-.29,8.173,8.173,0,0,0,2.65-2.98,15.077,15.077,0,0,0,.72-1.98,4.332,4.332,0,0,0,.4-1.94,1.835,1.835,0,0,0,.15-.73,3.8,3.8,0,0,1-.19-1.53,1.5,1.5,0,0,0,1.17-.16c.47-.14.95-.14,1.41-.32a10.755,10.755,0,0,0,2.46-1.31,23.342,23.342,0,0,0,3.88-3.55m-1.55-7.78a.318.318,0,0,1,0-.41.239.239,0,0,1,.33-.05c1.4.51,1.82.25,2.25,2.12a4.915,4.915,0,0,1,.1.77c.03.36-.03.73.02,1.09a5.848,5.848,0,0,1-.21,1.01c0,.36-.22.48-.6.46a.415.415,0,0,1-.35-.14.432.432,0,0,1-.12-.36c-.01-.33,0-.67,0-1.1a4.14,4.14,0,0,0-.2-1.64.717.717,0,0,0-.35-.65c-.63-.13-.47-.83-.87-1.1m.35-2.4a.708.708,0,0,1,.16-.28,1.167,1.167,0,0,0,.35-1.14c-.03-.41.26-.76.2-1.19a1.978,1.978,0,0,1,.16-1.2.582.582,0,0,1,.12-.25.62.62,0,0,1,.22-.17.52.52,0,0,1,.27-.05.56.56,0,0,1,.27.08,2.881,2.881,0,0,1,1,.87,2.99,2.99,0,0,1,.53,1.21,10.74,10.74,0,0,1,.15,1.39c0,.24-.01.48,0,.72a1.552,1.552,0,0,1-.18.66,1.469,1.469,0,0,1-1.1.74,1.436,1.436,0,0,1-.68-.08,6.654,6.654,0,0,1-1.32-.76.421.421,0,0,1-.18-.25.391.391,0,0,1,.03-.3m2.79-5.7c.75-.34,1.11-1.12,1.83-1.5a7.81,7.81,0,0,0,1.79-1.6,1.168,1.168,0,0,1,1.03-.36,1.091,1.091,0,0,1,1.01.4c.95,1.12,2.31,1.78,3.25,2.89.15.17.59.11.44.53a.652.652,0,0,1-.53.34,1.766,1.766,0,0,0-.35.26.52.52,0,0,1-.35.16.5.5,0,0,1-.37-.12c-.24-.24-.57-.3-.79-.56a2.378,2.378,0,0,0-1.1-.83.8.8,0,0,1-.52-.55,1.128,1.128,0,0,0-.27-.34.576.576,0,0,0-.42-.18.7.7,0,0,0-.44.14,6.668,6.668,0,0,1-.71.88,3.143,3.143,0,0,0-.88.52,5.062,5.062,0,0,1-1,.85.653.653,0,0,1-.74.11,3.03,3.03,0,0,0-.89-.51.337.337,0,0,1-.12-.26.491.491,0,0,1,.13-.27m.65,9.72a1.206,1.206,0,0,1,.28-1.24,10.8,10.8,0,0,0,.92-1.79.442.442,0,0,0,.06-.16,12.782,12.782,0,0,1,.16-1.28,4.764,4.764,0,0,0-.43-2.17.31.31,0,0,1-.09-.18.341.341,0,0,1,0-.2.31.31,0,0,1,.09-.18.61.61,0,0,1,.16-.12,11.645,11.645,0,0,0,2.03-1.67.936.936,0,0,1,.29-.27.849.849,0,0,1,.37-.12,1.048,1.048,0,0,1,.39.05,1.032,1.032,0,0,1,.33.21,5.532,5.532,0,0,1,.88.72c.26.23.55.43.82.64a.9.9,0,0,1,.19.2c.16.25.59.15.65.53a1.337,1.337,0,0,1-.31.78.472.472,0,0,0-.06.15c.04.45-.17.88-.16,1.29a6.291,6.291,0,0,0,1.53,3.99.18.18,0,0,1,.08.23,6.852,6.852,0,0,0-.17,2.47,6.74,6.74,0,0,1,.14,1.62c-.87.03-1.7.27-2.56.25a9.3,9.3,0,0,1-1.28.15,2.194,2.194,0,0,1-1.13-.15c-.29-.2-.73.09-1.1-.19a2.22,2.22,0,0,0-.89-.03.789.789,0,0,1-.75-.17.7.7,0,0,1-.4-.08.954.954,0,0,1-.03-.53,6.081,6.081,0,0,0-.01-2.75m10.52-7.86a2.439,2.439,0,0,1,.19,1.1c-.09.65.3,1.26.19,1.92a1.4,1.4,0,0,0,.34.49,1,1,0,0,1,.2.65,1.034,1.034,0,0,1-.44.36,6.512,6.512,0,0,1-.96.56,1.352,1.352,0,0,1-.34.11,1.452,1.452,0,0,1-.36.02,1.359,1.359,0,0,1-.35-.07,1.965,1.965,0,0,1-.33-.15,1.227,1.227,0,0,1-.28-.23,1.193,1.193,0,0,1-.21-.29,1.555,1.555,0,0,1-.14-.33,1.487,1.487,0,0,1-.05-.36,5.928,5.928,0,0,0,.01-.73,5.118,5.118,0,0,1,.48-2.25,3.2,3.2,0,0,1,1.24-1.18.553.553,0,0,1,.25-.07.534.534,0,0,1,.25.05.526.526,0,0,1,.2.16.477.477,0,0,1,.11.24m1.26,5.85a.5.5,0,0,1,.01.36,1.1,1.1,0,0,0-.37.67c.02.33-.41.28-.56.47a2.445,2.445,0,0,0-.52,1.42c-.02.64,0,1.27,0,1.91a.545.545,0,0,1-.01.22.453.453,0,0,1-.11.19.567.567,0,0,1-.18.12.534.534,0,0,1-.22.02c-.36.02-.54-.18-.56-.69-.02-.48-.01-.97-.01-1.45,0-.42-.02-.85.01-1.27a1.8,1.8,0,0,1,.14-.65,1.866,1.866,0,0,1,.35-.57,1.922,1.922,0,0,1,.52-.42,1.8,1.8,0,0,1,.63-.21c.23-.01.35-.2.56-.2a.28.28,0,0,1,.32.08m5.53,7.04a4.15,4.15,0,0,0,1-1.28v1.93c-.38.19-.64-.21-.99-.17-.09.01-.06-.15-.06-.23a.252.252,0,0,1,.05-.25m-.43-2.98A3.123,3.123,0,0,1,54,27.2a.236.236,0,0,1,.24-.08.157.157,0,0,1,.12.2.277.277,0,0,0,0,.18c.48,1.12-.36,1.84-.8,2.68a.265.265,0,0,1-.14.17.282.282,0,0,1-.22.03.4.4,0,0,1-.3-.39v-.37M69.24,17.11a.171.171,0,0,1,.21.12.2.2,0,0,1-.07.24.892.892,0,0,1-.37.2,7.143,7.143,0,0,0-2.75,1.24,2.16,2.16,0,0,1-.59.29.739.739,0,0,1-.88-.1,8.168,8.168,0,0,0-1.99-1.18A13.871,13.871,0,0,0,66,16.84a1.428,1.428,0,0,1,.42-.09c.27-.05.44.25.74.2a1.519,1.519,0,0,1,.76.11,3.9,3.9,0,0,0,1.32.05m-10.47-.86a.5.5,0,0,1,.27-.22c.41.05.66-.39,1.03-.35a5.5,5.5,0,0,0,1.12-.39,3.031,3.031,0,0,0,1.01-.39,20.068,20.068,0,0,0,2.7-1.36,1.555,1.555,0,0,1,.72-.25,2.076,2.076,0,0,0,1.13-.11c.3-.21.72.12,1-.24a.6.6,0,0,1,.35-.01.287.287,0,0,1,.24.15.281.281,0,0,1,.01.28,2.483,2.483,0,0,1-.7.67,10.39,10.39,0,0,0-1.25.93,4.864,4.864,0,0,1-2.76,1.43c-.38.38-.9.05-1.33.29a3.1,3.1,0,0,1-1.32.05,8.677,8.677,0,0,1-2.1-.16.16.16,0,0,1-.14-.08.4.4,0,0,1,.02-.24M76.73,4.12a.418.418,0,0,1,.18-.11l-.06.19c-.01.01-.03,0-.04.01-.09.01-.13-.02-.08-.09m.34-.02c-.03.11-.11.1-.19.1.14-.14.19-.12.19-.1M75.61,8.86a6.226,6.226,0,0,0,.97-1.14c.45-.79,1-1.53,1.39-2.34a6.323,6.323,0,0,0,.72-1.42,4,4,0,0,1,.37-.94c.36-.76.62-1.56.92-2.35A.246.246,0,0,0,80,.5a.722.722,0,0,0-.2-.29.726.726,0,0,0-.31-.17.827.827,0,0,0-.35-.01.814.814,0,0,0-.31.15,4.716,4.716,0,0,1-.85.82,4.917,4.917,0,0,0-1.13,1c-.34.39-.8.6-1.16.95a2.068,2.068,0,0,1-.88.72c-.41.11-.49.67-.84.8a3.315,3.315,0,0,0-1.06.91,1.7,1.7,0,0,1-.19.19c-.68.51-1.34,1.05-1.97,1.62-.66.46-1.28.97-1.97,1.38a6.076,6.076,0,0,0-2,1.52,4.685,4.685,0,0,1-1.71,1.57.893.893,0,0,0-.53.56.46.46,0,0,1-.27.32,1.99,1.99,0,0,0-.77.58c-.27.15-.59.17-.87.33a26.813,26.813,0,0,1-2.98,1.13c-.83.35-1.8.36-2.47,1.07-.9.23-1.69.75-2.56,1.06a1.389,1.389,0,0,1-.82.22,1.326,1.326,0,0,0-.9.26,6.924,6.924,0,0,0-2.1,1.53,4.189,4.189,0,0,0-.86,1.47,6.915,6.915,0,0,1-.19,1.01,2.257,2.257,0,0,0-.13,1.31.734.734,0,0,0,.15.47.659.659,0,0,0,.42.25,1.233,1.233,0,0,1,.87.54,2.026,2.026,0,0,0,.5.32,4.465,4.465,0,0,0,1.26.47,1.235,1.235,0,0,1,.74.98c.17.3-.19.39-.32.56s-.31.3-.44.46a4.408,4.408,0,0,0-1.2,2.96,12.341,12.341,0,0,0,.01,1.36c.05.43-.29.77-.2,1.2a.115.115,0,0,1-.06.11.148.148,0,0,1-.13.02,4.6,4.6,0,0,1-.52-.06,16.639,16.639,0,0,1-2.69-1.21c-.09-.05-.24,0-.24-.18.02-.68-.26-1.32-.19-2.02a2.84,2.84,0,0,1,1.14-2c.37-.28.79-.46,1.17-.72a2.04,2.04,0,0,0,.41-.85c.14-.21-.24-.36-.38-.54a1.231,1.231,0,0,0-.34-.26,2.734,2.734,0,0,1-1-1.08,1.838,1.838,0,0,1-.25-1.17c-.38-.19-.04-.61-.3-.88-.2-.2.05-.58-.14-.84a2.388,2.388,0,0,1-.1-.96c-.17-.58-.14-1.25-.9-1.54a3.336,3.336,0,0,1-.88-.5,20.089,20.089,0,0,1-2.75-2.37,1.063,1.063,0,0,0-.46-.43,1.533,1.533,0,0,1-1.07-.73c-.32-.28-.6-.61-.91-.9a1.3,1.3,0,0,0-.39-.31.922.922,0,0,0-.49-.1,1,1,0,0,0-.48.12,1.068,1.068,0,0,0-.38.32c-.44.42-.86.86-1.29,1.28a.625.625,0,0,1-.33.27,1.04,1.04,0,0,0-.8.51c-.53.42-.95.96-1.51,1.37a23.541,23.541,0,0,1-2.42,1.66.654.654,0,0,0-.38.46c.03.4-.26.71-.22,1.11a.706.706,0,0,1-.17.83,9.738,9.738,0,0,1-.35,1.85,2.676,2.676,0,0,1-.81,1.67c-.3.33-.75.47-1.03.83a.412.412,0,0,0-.07.52,1.091,1.091,0,0,0,.8.92,3.232,3.232,0,0,1,.86.55,2.349,2.349,0,0,1,.95,1.58,7.636,7.636,0,0,1-.17,2.38c-.02.17-.18.1-.26.15a9.6,9.6,0,0,1-1.5.76,4.593,4.593,0,0,1-1.61.51c-.12.01-.27.01-.25-.16.04-.47-.26-.89-.2-1.38a8.821,8.821,0,0,0,.01-1.36,7.819,7.819,0,0,0-.45-1.64,6.226,6.226,0,0,0-1.35-1.71c-.11-.1-.3-.22-.19-.36.26-.37.19-.94.89-1.06a2.865,2.865,0,0,0,1.92-1.06.641.641,0,0,1,.47-.19,1.017,1.017,0,0,0,.54-.37.959.959,0,0,0,.19-.63,5.316,5.316,0,0,0-.23-1.73,2.885,2.885,0,0,0-.68-1.53,7.984,7.984,0,0,0-2.34-1.82,7.6,7.6,0,0,0-1.16-.3,31.252,31.252,0,0,1-3.32-1.42,6.4,6.4,0,0,0-.84-.39c-.99-.31-1.94-.74-2.95-1.01-.56-.14-1.02-.47-1.55-.65a4.464,4.464,0,0,1-1.48-.85,1.1,1.1,0,0,1-.4-.4.877.877,0,0,0-.55-.53,3.023,3.023,0,0,1-1.52-1.32c-.5-.82-1.4-1.11-2-1.77A14.789,14.789,0,0,1,7.85,6a2.549,2.549,0,0,0-.48-.37,1.81,1.81,0,0,1-.7-.75c-.17-.3-.68-.28-.91-.6a.448.448,0,0,1-.16-.3.167.167,0,0,0-.18-.15A2.757,2.757,0,0,1,4.31,3a10.4,10.4,0,0,1-1.08-.91C2.59,1.38,1.73.91,1.12.17A.544.544,0,0,0,.54.03.621.621,0,0,0,.15.27.655.655,0,0,0,0,.69c.18.5.38,1,.58,1.49.25.62.49,1.25.78,1.86a3.413,3.413,0,0,0,.16.57C2.1,5.49,2.61,6.4,3.15,7.3a5.245,5.245,0,0,0,.96,1.33c.42.39.82.81,1.22,1.22a.2.2,0,0,1,.1.15.174.174,0,0,1-.06.16.211.211,0,0,1-.24.03c-.67-.56-1.62-.54-2.25-1.16a.5.5,0,0,0-.23-.09c-.3-.02-.61-.02-.91-.01a2.525,2.525,0,0,0-.87.06.592.592,0,0,0,.07.29,12.455,12.455,0,0,0,1.87,2.41,4.44,4.44,0,0,1,.81,1.02,12.876,12.876,0,0,0,1.62,2.52.7.7,0,0,1-.01.25,1.913,1.913,0,0,1-.95-.03,2.156,2.156,0,0,0-1.12-.15.291.291,0,0,0-.25.12.282.282,0,0,0-.03.28,1.227,1.227,0,0,0,.23.28,9.881,9.881,0,0,1,1.4,1.88,1.407,1.407,0,0,0,.34.39,22.843,22.843,0,0,0,2.58,1.9,3.14,3.14,0,0,0,1.1.46.473.473,0,0,1-.4.33,4.448,4.448,0,0,0-.73,0,1.332,1.332,0,0,0-1.05.68,1.353,1.353,0,0,0,.6.92c.03.03.13,0,.16.03a3.562,3.562,0,0,0,2.17.91c.12.01.17.07.15.19a.2.2,0,0,1-.15.18,5.331,5.331,0,0,1-.87.32c-.22.11-.58.07-.6.38a.689.689,0,0,0,.49.56c.21.14.46.21.68.36a1.007,1.007,0,0,1,.82.64.149.149,0,0,0,.22.1.977.977,0,0,1,.8.24.884.884,0,0,0,.5.12c.27.01.53,0,.78,0a.734.734,0,0,1-.24.92,1.058,1.058,0,0,0-.32.51c-.18.38-.16.61.15.73a2.449,2.449,0,0,0,1.39.4,3.89,3.89,0,0,1,1.18,0,.788.788,0,0,0,.71-.24c.4-.63,1.15-.9,1.56-1.51a.777.777,0,0,1,.26-.25c.08-.05.1-.25.27-.12,0,.21-.02.42,0,.62a1.254,1.254,0,0,1-.42,1.12,4.982,4.982,0,0,0-1.22,2.03c-.12.38-.16.42-.5.27a1.978,1.978,0,0,0-.31-.12,14.488,14.488,0,0,1-2.72-.91,10.761,10.761,0,0,1-1.32-.76,17.972,17.972,0,0,1-1.78-1.21c-.57-.5-1.17-.97-1.78-1.41-.16-.11-.41-.38-.59-.21a.76.76,0,0,0-.28.69c.02.14.09.28.11.41A2.217,2.217,0,0,1,6.5,28.6c-.07.28.25.39.2.66a1.318,1.318,0,0,0,.04.71,20.021,20.021,0,0,1,.5,2.97.285.285,0,0,0,.13.22,4.347,4.347,0,0,1,.18,2.62,3.1,3.1,0,0,0,.03,1.6.4.4,0,0,1-.03.42.561.561,0,0,0-.12.58,11.44,11.44,0,0,0,.14,1.94c.17.79.04,1.64.18,2.47.17.95.04,1.94.18,2.92a18.076,18.076,0,0,1,.02,3.45c-.07,1.14.26,2.24.21,3.38a7.122,7.122,0,0,0,.14,2.3,4.969,4.969,0,0,1,.02,1.72c-.05.57.27,1.07.21,1.65a10.059,10.059,0,0,0-.01,1.82,7.111,7.111,0,0,0,.14,1.84,6.1,6.1,0,0,1,.03,1.81.277.277,0,0,0,0,.18,1.623,1.623,0,0,1,.16,1.29c-.06.49.25.92.19,1.38-.1.75.3,1.45.19,2.2a.293.293,0,0,0,.04.16,7.624,7.624,0,0,1,.34,1.41A9.563,9.563,0,0,0,10,72.14c.46,1.22.66,2.51,1.02,3.75.23.82,1.1,3.33,1.41,3.97a38.866,38.866,0,0,0,1.88,3.41c.37.59.59,1.27.93,1.88a8.65,8.65,0,0,1,1.1,1.82,1.789,1.789,0,0,0,.39.48c.17.2.36.38.52.6.54.77.94,1.61,1.45,2.4a13.789,13.789,0,0,0,1.33,1.9c.93,1.05,1.96,2.02,2.9,3.07a25.908,25.908,0,0,0,4,3.69c1.1.82,2.11,1.78,3.2,2.61a8.3,8.3,0,0,0,.88.9,9.592,9.592,0,0,1,1.15.96c.39.32.75.68,1.15.96a10.2,10.2,0,0,1,1.7,1.37,2.345,2.345,0,0,0,.45.44,33.573,33.573,0,0,0,3.19,1.95,1.062,1.062,0,0,1,.58.37.875.875,0,0,0,.56.34.921.921,0,0,0,.65-.11,20.4,20.4,0,0,0,3.02-1.71c1.04-.71,1.76-1.76,2.8-2.45a14.455,14.455,0,0,0,1.18-.88c.63-.53,1.25-1.09,1.88-1.63.14-.11.03-.47.37-.37.71-.72,1.58-1.23,2.31-1.92a15,15,0,0,1,1.28-1.09,24.883,24.883,0,0,0,2.14-1.83,22.713,22.713,0,0,0,2.02-2.14c.76-.96,1.73-1.74,2.5-2.7a20.981,20.981,0,0,0,1.67-2.4,13.661,13.661,0,0,1,2.43-3.36,1.24,1.24,0,0,0,.44-.72,2.7,2.7,0,0,1,.33-.78c.59-1.31,1.36-2.53,2.05-3.79a16.534,16.534,0,0,0,1.37-3.07c.36-1.19.72-2.37,1.03-3.58a16.212,16.212,0,0,1,.66-2.36,2.859,2.859,0,0,0,.39-1.28c-.11-1.02.5-1.93.38-2.94a1.4,1.4,0,0,0,.17-1.11,5.156,5.156,0,0,1,.19-1.11,15.525,15.525,0,0,1,.15-1.93c.16-.83.08-1.7.19-2.56.18-1.41-.09-2.85.18-4.29.17-.89.04-1.82.18-2.74.18-1.2.04-2.43.17-3.65.21-1.93-.11-3.89.21-5.84.13-.84-.01-1.7.16-2.56.17-.83-.01-1.71.2-2.56.08-.34-.04-.74.03-1.08.09-.41-.37-.75-.15-1.09a2.056,2.056,0,0,0,.13-1.04.7.7,0,0,0-.04-.43,2.712,2.712,0,0,1-.13-1.41,1.676,1.676,0,0,1,.29-1.42.2.2,0,0,0,.06-.15c-.01-.85.3-1.65.34-2.49.02-.28.22-.46.22-.74a.81.81,0,0,1,.16-.84,3.774,3.774,0,0,1,.37-1.58.75.75,0,0,0-.27-.86.82.82,0,0,0-.67.29,1.538,1.538,0,0,0-.13.12,9.761,9.761,0,0,0-1.22,1.01c-.85.62-1.73,1.2-2.65,1.74a9.348,9.348,0,0,1-1.75.83c-.67.22-1.36.36-2.02.6-.32.12-.55.03-.54-.26a1.587,1.587,0,0,0-.23-.82,4.143,4.143,0,0,0-1.02-1.4,1,1,0,0,1-.36-.45.932.932,0,0,1-.04-.57.673.673,0,0,1,.1-.57c.39.4.8.76,1.15,1.17a3.265,3.265,0,0,1,.7.52.862.862,0,0,0,.4.4.915.915,0,0,0,.56.09c.36-.01.73-.02,1.09,0a1.712,1.712,0,0,0,1.14-.32c.56-.34.62-.46.3-.99a1.118,1.118,0,0,0-.28-.33.7.7,0,0,1-.26-.43.753.753,0,0,1,.06-.51,4.421,4.421,0,0,0,1.15-.02,2.135,2.135,0,0,1,.96-.31.148.148,0,0,0,.13-.02.125.125,0,0,0,.06-.11.777.777,0,0,1,.68-.59c.29-.21.67-.3.97-.49a.432.432,0,0,0,.34-.48.463.463,0,0,0-.47-.33,5.209,5.209,0,0,1-1.03-.35c-.11-.03-.15-.09-.12-.2s.07-.19.17-.16a1.609,1.609,0,0,0,.83-.19,3.85,3.85,0,0,0,1.68-.97c.61-.55.52-.79-.2-1.22a1.409,1.409,0,0,0-.66-.17,1.2,1.2,0,0,1-.7-.06.414.414,0,0,1-.18-.19c-.02-.09.09-.11.18-.11a1.118,1.118,0,0,0,.77-.34,9.665,9.665,0,0,0,2.28-1.73.347.347,0,0,1,.23-.12.874.874,0,0,0,.5-.48,12.587,12.587,0,0,1,.78-1.13,6.45,6.45,0,0,1,.79-.94.4.4,0,0,0,.06-.42c-.02-.15-.18-.12-.3-.11a1.751,1.751,0,0,0-.88.05,2.054,2.054,0,0,1-.95.13.168.168,0,0,1-.22-.11.2.2,0,0,1,.07-.24,6.592,6.592,0,0,0,1.04-1.57,7.719,7.719,0,0,1,1.67-2.22,5.445,5.445,0,0,0,1-1.24,1.573,1.573,0,0,0,.57-1.17H77.34a.382.382,0,0,0-.32.12c-.62.63-1.59.58-2.25,1.15a.144.144,0,0,1-.23-.06.257.257,0,0,1,.02-.24c.36-.36.71-.69,1.05-1.04" transform="translate(0 0.001)"/></svg>