<svg xmlns="http://www.w3.org/2000/svg" width="60.05" height="57.373" viewBox="0 0 60.05 57.373"><defs><style>.a{fill:#fff;opacity:0.4;}.a,.b{fill-rule:evenodd;}.b{fill:#efd99c;}</style></defs><g transform="translate(0 -0.001)"><path class="a" d="M2724.8,901.577l5.25,3.51-5.24,3.5a24.9,24.9,0,0,1-6.39,13.556l8.27,10.107-10.12-8.3a24.963,24.963,0,0,1-33.99-.9l1.17,1.169-10.26,8.155,8.14-10.282.57.575a24.958,24.958,0,0,1-6.86-14.014l-5.34-3.565,5.35-3.573a24.876,24.876,0,0,1,21.11-21.153l3.57-5.361,3.56,5.354a24.9,24.9,0,0,1,13.4,6.348l10.15-8.326-8.33,10.186a24.893,24.893,0,0,1,5.99,13.014Zm-8.44-12.75a22.993,22.993,0,1,0,6.787,16.311,23.045,23.045,0,0,0-6.787-16.311Zm-42.86-11.04,10.27,8.156-2.13,2.127Z" transform="translate(-2670 -875)"/><path class="b" d="M2708.49,909.507l-.94-.955-1.42,1.432-13.37-13.561H2689v3.818l13.37,13.561-1.41,1.432.94.955,2.35-2.387,4.71,4.775,1.88-1.909-4.71-4.775Zm-15.97-8.557.94-.954,11.26,11.42-.94.955Zm6.85,11.72-1.41-1.432-1.12,1.133-.94-.955,1.12-1.132-1.41-1.432-1.12,1.132-1.41-1.432-.94.955,2.35,2.386-4.71,4.775,1.89,1.909,4.7-4.775.94.955,1.42,1.432.94-.955-1.42-1.432Zm8.49-16.247-6.61,6.7,1.42,1.431,4.49-4.56.94.954-4.49,4.561,1.41,1.432,6.6-6.7v-3.818h-3.76ZM2700.5,887l5.5,4h-11Zm-2.5,2h5v4h-5Zm0,5h5v2h-5Zm0,3h5v1h-5Z" transform="translate(-2670 -875)"/></g></svg>