<svg xmlns="http://www.w3.org/2000/svg" width="60.05" height="57.373" viewBox="0 0 60.05 57.373"><defs><style>.a{fill:#fff;opacity:0.4;}.a,.b{fill-rule:evenodd;}.b{fill:#efd99c;}</style></defs><g transform="translate(0 -0.001)"><path class="a" d="M3235.8,901.577l5.25,3.51-5.24,3.5a24.9,24.9,0,0,1-6.389,13.556l8.27,10.107-10.12-8.3a24.963,24.963,0,0,1-33.99-.9l1.17,1.169-10.26,8.155,8.14-10.282.57.575a24.961,24.961,0,0,1-6.86-14.014l-5.34-3.565,5.35-3.573a24.877,24.877,0,0,1,21.11-21.153l3.57-5.361,3.56,5.354a24.9,24.9,0,0,1,13.4,6.348l10.15-8.326-8.33,10.186a24.886,24.886,0,0,1,5.991,13.014Zm-8.44-12.75a22.994,22.994,0,1,0,6.787,16.311A23.045,23.045,0,0,0,3227.36,888.827Zm-42.86-11.04,10.27,8.156-2.13,2.127Z" transform="translate(-3181 -875)"/><path class="b" d="M3199.07,905.523h24.86v2.191h-24.86Zm3.75-8.882c-1.37-1.088-1.47-2.385-2.05-3.641-.21.936-2.1,3.626-.29,6.771a12.482,12.482,0,0,1,2.34-3.13Zm19.7,3.13c1.86-3.238-.2-6.072-.3-6.771-.57,1.257-.67,2.553-2.04,3.641a12.287,12.287,0,0,1,2.34,3.13Zm-18.76,9.4h-2.5V914l6.37,3.181-2.07-6.217Zm13.68,1.8-2.07,6.217,6.37-3.181v-4.832h-2.5Zm-6.67-16.3h1.46v9.4h-1.46Zm-1.46,9.4V894.8a10.953,10.953,0,0,0-8.68,9.274Zm4.38-9.274v9.274h8.68a10.964,10.964,0,0,0-8.68-9.282Zm-3.65,14.385v3.952l1.46,1.462,1.46-1.462v-3.952Z" transform="translate(-3181 -875)"/></g></svg>